solid vawt1
   facet normal -2.710263e-03 -9.999963e-01 -0.000000e+00
      outer loop
         vertex -8.535497e-03 1.951939e-01 5.000000e-02
         vertex -8.535497e-03 1.951939e-01 -1.387779e-17
         vertex -6.880590e-03 1.951895e-01 0.000000e+00
      endloop
   endfacet
   facet normal -2.710263e-03 -9.999963e-01 -0.000000e+00
      outer loop
         vertex -6.880590e-03 1.951895e-01 5.000000e-02
         vertex -8.535497e-03 1.951939e-01 5.000000e-02
         vertex -6.880590e-03 1.951895e-01 0.000000e+00
      endloop
   endfacet
   facet normal 8.026109e-02 -9.967739e-01 0.000000e+00
      outer loop
         vertex -4.770540e-03 1.953594e-01 -1.387779e-17
         vertex -6.880590e-03 1.951895e-01 5.000000e-02
         vertex -6.880590e-03 1.951895e-01 0.000000e+00
      endloop
   endfacet
   facet normal -6.447803e-15 -1.604444e-15 -1.000000e+00
      outer loop
         vertex -8.258291e-03 2.007260e-01 0.000000e+00
         vertex -4.770540e-03 1.953594e-01 -1.387779e-17
         vertex -6.880590e-03 1.951895e-01 0.000000e+00
      endloop
   endfacet
   facet normal 0.000000e+00 0.000000e+00 -1.000000e+00
      outer loop
         vertex -9.578806e-03 1.999656e-01 0.000000e+00
         vertex -8.258291e-03 2.007260e-01 0.000000e+00
         vertex -6.880590e-03 1.951895e-01 0.000000e+00
      endloop
   endfacet
   facet normal 8.398703e-15 4.744754e-15 -1.000000e+00
      outer loop
         vertex -8.535497e-03 1.951939e-01 -1.387779e-17
         vertex -9.578806e-03 1.999656e-01 0.000000e+00
         vertex -6.880590e-03 1.951895e-01 0.000000e+00
      endloop
   endfacet
   facet normal 8.026109e-02 -9.967739e-01 0.000000e+00
      outer loop
         vertex -4.770540e-03 1.953594e-01 -1.387779e-17
         vertex -4.770540e-03 1.953594e-01 5.000000e-02
         vertex -6.880590e-03 1.951895e-01 5.000000e-02
      endloop
   endfacet
   facet normal 0.000000e+00 0.000000e+00 1.000000e+00
      outer loop
         vertex -4.770540e-03 1.953594e-01 5.000000e-02
         vertex -8.258291e-03 2.007260e-01 5.000000e-02
         vertex -6.880590e-03 1.951895e-01 5.000000e-02
      endloop
   endfacet
   facet normal 0.000000e+00 0.000000e+00 1.000000e+00
      outer loop
         vertex -8.258291e-03 2.007260e-01 5.000000e-02
         vertex -9.578806e-03 1.999656e-01 5.000000e-02
         vertex -6.880590e-03 1.951895e-01 5.000000e-02
      endloop
   endfacet
   facet normal 0.000000e+00 0.000000e+00 1.000000e+00
      outer loop
         vertex -9.578806e-03 1.999656e-01 5.000000e-02
         vertex -8.535497e-03 1.951939e-01 5.000000e-02
         vertex -6.880590e-03 1.951895e-01 5.000000e-02
      endloop
   endfacet
   facet normal -1.105491e-01 -9.938707e-01 -0.000000e+00
      outer loop
         vertex -9.807772e-03 1.953355e-01 5.000000e-02
         vertex -9.807772e-03 1.953355e-01 -1.387779e-17
         vertex -8.535497e-03 1.951939e-01 -1.387779e-17
      endloop
   endfacet
   facet normal -1.105491e-01 -9.938707e-01 -0.000000e+00
      outer loop
         vertex -8.535497e-03 1.951939e-01 5.000000e-02
         vertex -9.807772e-03 1.953355e-01 5.000000e-02
         vertex -8.535497e-03 1.951939e-01 -1.387779e-17
      endloop
   endfacet
   facet normal -1.809302e-15 2.512792e-15 -1.000000e+00
      outer loop
         vertex -1.072256e-02 1.991420e-01 0.000000e+00
         vertex -9.578806e-03 1.999656e-01 0.000000e+00
         vertex -8.535497e-03 1.951939e-01 -1.387779e-17
      endloop
   endfacet
   facet normal 4.166565e-16 3.745870e-15 -1.000000e+00
      outer loop
         vertex -9.807772e-03 1.953355e-01 -1.387779e-17
         vertex -1.072256e-02 1.991420e-01 0.000000e+00
         vertex -8.535497e-03 1.951939e-01 -1.387779e-17
      endloop
   endfacet
   facet normal 0.000000e+00 0.000000e+00 1.000000e+00
      outer loop
         vertex -9.578806e-03 1.999656e-01 5.000000e-02
         vertex -1.072256e-02 1.991420e-01 5.000000e-02
         vertex -8.535497e-03 1.951939e-01 5.000000e-02
      endloop
   endfacet
   facet normal 0.000000e+00 0.000000e+00 1.000000e+00
      outer loop
         vertex -1.072256e-02 1.991420e-01 5.000000e-02
         vertex -9.807772e-03 1.953355e-01 5.000000e-02
         vertex -8.535497e-03 1.951939e-01 5.000000e-02
      endloop
   endfacet
   facet normal -2.387648e-01 -9.710774e-01 -0.000000e+00
      outer loop
         vertex -1.069678e-02 1.955540e-01 5.000000e-02
         vertex -1.069678e-02 1.955540e-01 -1.387779e-17
         vertex -9.807772e-03 1.953355e-01 -1.387779e-17
      endloop
   endfacet
   facet normal -2.387648e-01 -9.710774e-01 -0.000000e+00
      outer loop
         vertex -9.807772e-03 1.953355e-01 5.000000e-02
         vertex -1.069678e-02 1.955540e-01 5.000000e-02
         vertex -9.807772e-03 1.953355e-01 -1.387779e-17
      endloop
   endfacet
   facet normal -2.769447e-15 2.980195e-15 -1.000000e+00
      outer loop
         vertex -1.135620e-02 1.985532e-01 0.000000e+00
         vertex -1.072256e-02 1.991420e-01 0.000000e+00
         vertex -9.807772e-03 1.953355e-01 -1.387779e-17
      endloop
   endfacet
   facet normal 1.202747e-15 4.891677e-15 -1.000000e+00
      outer loop
         vertex -1.069678e-02 1.955540e-01 -1.387779e-17
         vertex -1.135620e-02 1.985532e-01 0.000000e+00
         vertex -9.807772e-03 1.953355e-01 -1.387779e-17
      endloop
   endfacet
   facet normal 0.000000e+00 0.000000e+00 1.000000e+00
      outer loop
         vertex -1.072256e-02 1.991420e-01 5.000000e-02
         vertex -1.135620e-02 1.985532e-01 5.000000e-02
         vertex -9.807772e-03 1.953355e-01 5.000000e-02
      endloop
   endfacet
   facet normal 0.000000e+00 0.000000e+00 1.000000e+00
      outer loop
         vertex -1.135620e-02 1.985532e-01 5.000000e-02
         vertex -1.069678e-02 1.955540e-01 5.000000e-02
         vertex -9.807772e-03 1.953355e-01 5.000000e-02
      endloop
   endfacet
   facet normal 1.489652e-01 -9.888424e-01 0.000000e+00
      outer loop
         vertex -2.205772e-03 1.957457e-01 -6.938894e-18
         vertex -4.770540e-03 1.953594e-01 5.000000e-02
         vertex -4.770540e-03 1.953594e-01 -1.387779e-17
      endloop
   endfacet
   facet normal 2.297104e-15 2.710745e-15 -1.000000e+00
      outer loop
         vertex -6.209930e-03 2.016987e-01 0.000000e+00
         vertex -2.205772e-03 1.957457e-01 -6.938894e-18
         vertex -4.770540e-03 1.953594e-01 -1.387779e-17
      endloop
   endfacet
   facet normal -9.383107e-16 1.976117e-15 -1.000000e+00
      outer loop
         vertex -8.258291e-03 2.007260e-01 0.000000e+00
         vertex -6.209930e-03 2.016987e-01 0.000000e+00
         vertex -4.770540e-03 1.953594e-01 -1.387779e-17
      endloop
   endfacet
   facet normal 1.489652e-01 -9.888424e-01 0.000000e+00
      outer loop
         vertex -2.205772e-03 1.957457e-01 -6.938894e-18
         vertex -2.205772e-03 1.957457e-01 5.000000e-02
         vertex -4.770540e-03 1.953594e-01 5.000000e-02
      endloop
   endfacet
   facet normal 0.000000e+00 0.000000e+00 1.000000e+00
      outer loop
         vertex -2.205772e-03 1.957457e-01 5.000000e-02
         vertex -6.209930e-03 2.016987e-01 5.000000e-02
         vertex -4.770540e-03 1.953594e-01 5.000000e-02
      endloop
   endfacet
   facet normal 0.000000e+00 0.000000e+00 1.000000e+00
      outer loop
         vertex -6.209930e-03 2.016987e-01 5.000000e-02
         vertex -8.258291e-03 2.007260e-01 5.000000e-02
         vertex -4.770540e-03 1.953594e-01 5.000000e-02
      endloop
   endfacet
   facet normal -3.801660e-01 -9.249183e-01 -0.000000e+00
      outer loop
         vertex -1.110706e-02 1.957227e-01 5.000000e-02
         vertex -1.110706e-02 1.957227e-01 -2.081668e-17
         vertex -1.069678e-02 1.955540e-01 -1.387779e-17
      endloop
   endfacet
   facet normal -3.801660e-01 -9.249183e-01 -0.000000e+00
      outer loop
         vertex -1.069678e-02 1.955540e-01 5.000000e-02
         vertex -1.110706e-02 1.957227e-01 5.000000e-02
         vertex -1.069678e-02 1.955540e-01 -1.387779e-17
      endloop
   endfacet
   facet normal 2.068368e-14 9.174939e-15 -1.000000e+00
      outer loop
         vertex -1.110706e-02 1.957227e-01 -2.081668e-17
         vertex -1.135620e-02 1.985532e-01 0.000000e+00
         vertex -1.069678e-02 1.955540e-01 -1.387779e-17
      endloop
   endfacet
   facet normal 0.000000e+00 0.000000e+00 1.000000e+00
      outer loop
         vertex -1.135620e-02 1.985532e-01 5.000000e-02
         vertex -1.110706e-02 1.957227e-01 5.000000e-02
         vertex -1.069678e-02 1.955540e-01 5.000000e-02
      endloop
   endfacet
   facet normal -5.197676e-01 -8.543077e-01 -0.000000e+00
      outer loop
         vertex -1.145972e-02 1.959372e-01 5.000000e-02
         vertex -1.145972e-02 1.959372e-01 0.000000e+00
         vertex -1.110706e-02 1.957227e-01 -2.081668e-17
      endloop
   endfacet
   facet normal -5.197676e-01 -8.543077e-01 -0.000000e+00
      outer loop
         vertex -1.110706e-02 1.957227e-01 5.000000e-02
         vertex -1.145972e-02 1.959372e-01 5.000000e-02
         vertex -1.110706e-02 1.957227e-01 -2.081668e-17
      endloop
   endfacet
   facet normal -5.763970e-14 2.280931e-15 -1.000000e+00
      outer loop
         vertex -1.145972e-02 1.959372e-01 0.000000e+00
         vertex -1.135620e-02 1.985532e-01 0.000000e+00
         vertex -1.110706e-02 1.957227e-01 -2.081668e-17
      endloop
   endfacet
   facet normal 0.000000e+00 0.000000e+00 1.000000e+00
      outer loop
         vertex -1.135620e-02 1.985532e-01 5.000000e-02
         vertex -1.145972e-02 1.959372e-01 5.000000e-02
         vertex -1.110706e-02 1.957227e-01 5.000000e-02
      endloop
   endfacet
   facet normal 2.053475e-01 -9.786891e-01 0.000000e+00
      outer loop
         vertex 8.428669e-04 1.963854e-01 -1.387779e-17
         vertex -2.205772e-03 1.957457e-01 5.000000e-02
         vertex -2.205772e-03 1.957457e-01 -6.938894e-18
      endloop
   endfacet
   facet normal -2.361655e-15 4.079352e-16 -1.000000e+00
      outer loop
         vertex -3.962173e-03 2.025872e-01 0.000000e+00
         vertex 8.428669e-04 1.963854e-01 -1.387779e-17
         vertex -2.205772e-03 1.957457e-01 -6.938894e-18
      endloop
   endfacet
   facet normal -3.639959e-16 9.207906e-16 -1.000000e+00
      outer loop
         vertex -6.209930e-03 2.016987e-01 0.000000e+00
         vertex -3.962173e-03 2.025872e-01 0.000000e+00
         vertex -2.205772e-03 1.957457e-01 -6.938894e-18
      endloop
   endfacet
   facet normal 2.053475e-01 -9.786891e-01 0.000000e+00
      outer loop
         vertex 8.428669e-04 1.963854e-01 -1.387779e-17
         vertex 8.428669e-04 1.963854e-01 5.000000e-02
         vertex -2.205772e-03 1.957457e-01 5.000000e-02
      endloop
   endfacet
   facet normal 0.000000e+00 0.000000e+00 1.000000e+00
      outer loop
         vertex 8.428669e-04 1.963854e-01 5.000000e-02
         vertex -9.857320e-04 2.035799e-01 5.000000e-02
         vertex -2.205772e-03 1.957457e-01 5.000000e-02
      endloop
   endfacet
   facet normal 0.000000e+00 0.000000e+00 1.000000e+00
      outer loop
         vertex -9.857320e-04 2.035799e-01 5.000000e-02
         vertex -3.962173e-03 2.025872e-01 5.000000e-02
         vertex -2.205772e-03 1.957457e-01 5.000000e-02
      endloop
   endfacet
   facet normal 0.000000e+00 0.000000e+00 1.000000e+00
      outer loop
         vertex -3.962173e-03 2.025872e-01 5.000000e-02
         vertex -6.209930e-03 2.016987e-01 5.000000e-02
         vertex -2.205772e-03 1.957457e-01 5.000000e-02
      endloop
   endfacet
   facet normal -6.501256e-01 -7.598268e-01 -0.000000e+00
      outer loop
         vertex -1.171644e-02 1.961569e-01 5.000000e-02
         vertex -1.171644e-02 1.961569e-01 -1.387779e-17
         vertex -1.145972e-02 1.959372e-01 0.000000e+00
      endloop
   endfacet
   facet normal -6.501256e-01 -7.598268e-01 -0.000000e+00
      outer loop
         vertex -1.145972e-02 1.959372e-01 5.000000e-02
         vertex -1.171644e-02 1.961569e-01 5.000000e-02
         vertex -1.145972e-02 1.959372e-01 0.000000e+00
      endloop
   endfacet
   facet normal 5.228710e-14 -2.069117e-15 -1.000000e+00
      outer loop
         vertex -1.171644e-02 1.961569e-01 -1.387779e-17
         vertex -1.135620e-02 1.985532e-01 0.000000e+00
         vertex -1.145972e-02 1.959372e-01 0.000000e+00
      endloop
   endfacet
   facet normal 0.000000e+00 0.000000e+00 1.000000e+00
      outer loop
         vertex -1.135620e-02 1.985532e-01 5.000000e-02
         vertex -1.171644e-02 1.961569e-01 5.000000e-02
         vertex -1.145972e-02 1.959372e-01 5.000000e-02
      endloop
   endfacet
   facet normal -7.643999e-01 -6.447424e-01 -0.000000e+00
      outer loop
         vertex -1.188567e-02 1.963575e-01 5.000000e-02
         vertex -1.188567e-02 1.963575e-01 -1.387779e-17
         vertex -1.171644e-02 1.961569e-01 -1.387779e-17
      endloop
   endfacet
   facet normal -7.643999e-01 -6.447424e-01 -0.000000e+00
      outer loop
         vertex -1.171644e-02 1.961569e-01 5.000000e-02
         vertex -1.188567e-02 1.963575e-01 5.000000e-02
         vertex -1.171644e-02 1.961569e-01 -1.387779e-17
      endloop
   endfacet
   facet normal 5.827500e-15 4.915276e-15 -1.000000e+00
      outer loop
         vertex -1.188567e-02 1.963575e-01 -1.387779e-17
         vertex -1.135620e-02 1.985532e-01 0.000000e+00
         vertex -1.171644e-02 1.961569e-01 -1.387779e-17
      endloop
   endfacet
   facet normal 0.000000e+00 0.000000e+00 1.000000e+00
      outer loop
         vertex -1.135620e-02 1.985532e-01 5.000000e-02
         vertex -1.188567e-02 1.963575e-01 5.000000e-02
         vertex -1.171644e-02 1.961569e-01 5.000000e-02
      endloop
   endfacet
   facet normal -8.541788e-01 -5.199794e-01 -0.000000e+00
      outer loop
         vertex -1.198170e-02 1.965153e-01 5.000000e-02
         vertex -1.198170e-02 1.965153e-01 -1.387779e-17
         vertex -1.188567e-02 1.963575e-01 -1.387779e-17
      endloop
   endfacet
   facet normal -8.541788e-01 -5.199794e-01 -0.000000e+00
      outer loop
         vertex -1.188567e-02 1.963575e-01 5.000000e-02
         vertex -1.198170e-02 1.965153e-01 5.000000e-02
         vertex -1.188567e-02 1.963575e-01 -1.387779e-17
      endloop
   endfacet
   facet normal 7.436886e-15 4.527187e-15 -1.000000e+00
      outer loop
         vertex -1.198170e-02 1.965153e-01 -1.387779e-17
         vertex -1.135620e-02 1.985532e-01 0.000000e+00
         vertex -1.188567e-02 1.963575e-01 -1.387779e-17
      endloop
   endfacet
   facet normal 0.000000e+00 0.000000e+00 1.000000e+00
      outer loop
         vertex -1.135620e-02 1.985532e-01 5.000000e-02
         vertex -1.198170e-02 1.965153e-01 5.000000e-02
         vertex -1.188567e-02 1.963575e-01 5.000000e-02
      endloop
   endfacet
   facet normal 2.498012e-01 -9.682972e-01 0.000000e+00
      outer loop
         vertex 3.891779e-03 1.971720e-01 -1.387779e-17
         vertex 8.428669e-04 1.963854e-01 5.000000e-02
         vertex 8.428669e-04 1.963854e-01 -1.387779e-17
      endloop
   endfacet
   facet normal -4.670078e-16 1.810249e-15 -1.000000e+00
      outer loop
         vertex -9.857320e-04 2.035799e-01 0.000000e+00
         vertex 3.891779e-03 1.971720e-01 -1.387779e-17
         vertex 8.428669e-04 1.963854e-01 -1.387779e-17
      endloop
   endfacet
   facet normal -5.930506e-16 1.778213e-15 -1.000000e+00
      outer loop
         vertex -3.962173e-03 2.025872e-01 0.000000e+00
         vertex -9.857320e-04 2.035799e-01 0.000000e+00
         vertex 8.428669e-04 1.963854e-01 -1.387779e-17
      endloop
   endfacet
   facet normal 2.498012e-01 -9.682972e-01 0.000000e+00
      outer loop
         vertex 3.891779e-03 1.971720e-01 -1.387779e-17
         vertex 3.891779e-03 1.971720e-01 5.000000e-02
         vertex 8.428669e-04 1.963854e-01 5.000000e-02
      endloop
   endfacet
   facet normal 0.000000e+00 0.000000e+00 1.000000e+00
      outer loop
         vertex 3.891779e-03 1.971720e-01 5.000000e-02
         vertex 2.311425e-03 2.045102e-01 5.000000e-02
         vertex 8.428669e-04 1.963854e-01 5.000000e-02
      endloop
   endfacet
   facet normal 0.000000e+00 0.000000e+00 1.000000e+00
      outer loop
         vertex 2.311425e-03 2.045102e-01 5.000000e-02
         vertex -9.857320e-04 2.035799e-01 5.000000e-02
         vertex 8.428669e-04 1.963854e-01 5.000000e-02
      endloop
   endfacet
   facet normal -9.219807e-01 -3.872358e-01 -0.000000e+00
      outer loop
         vertex -1.204741e-02 1.966717e-01 5.000000e-02
         vertex -1.204741e-02 1.966717e-01 -1.387779e-17
         vertex -1.198170e-02 1.965153e-01 -1.387779e-17
      endloop
   endfacet
   facet normal -9.219807e-01 -3.872358e-01 -0.000000e+00
      outer loop
         vertex -1.198170e-02 1.965153e-01 5.000000e-02
         vertex -1.204741e-02 1.966717e-01 5.000000e-02
         vertex -1.198170e-02 1.965153e-01 -1.387779e-17
      endloop
   endfacet
   facet normal -1.912690e-13 -7.482793e-15 -1.000000e+00
      outer loop
         vertex -1.208223e-02 1.972304e-01 0.000000e+00
         vertex -1.201993e-02 1.974925e-01 -1.387779e-17
         vertex -1.198170e-02 1.965153e-01 -1.387779e-17
      endloop
   endfacet
   facet normal 9.854046e-14 3.855083e-15 -1.000000e+00
      outer loop
         vertex -1.201993e-02 1.974925e-01 -1.387779e-17
         vertex -1.189151e-02 1.978098e-01 0.000000e+00
         vertex -1.198170e-02 1.965153e-01 -1.387779e-17
      endloop
   endfacet
   facet normal -9.920445e-14 1.763194e-14 -1.000000e+00
      outer loop
         vertex -1.189151e-02 1.978098e-01 0.000000e+00
         vertex -1.169163e-02 1.981473e-01 -1.387779e-17
         vertex -1.198170e-02 1.965153e-01 -1.387779e-17
      endloop
   endfacet
   facet normal 5.270807e-14 -9.367984e-15 -1.000000e+00
      outer loop
         vertex -1.169163e-02 1.981473e-01 -1.387779e-17
         vertex -1.135620e-02 1.985532e-01 0.000000e+00
         vertex -1.198170e-02 1.965153e-01 -1.387779e-17
      endloop
   endfacet
   facet normal 0.000000e+00 0.000000e+00 -1.000000e+00
      outer loop
         vertex -1.204741e-02 1.966717e-01 -1.387779e-17
         vertex -1.208673e-02 1.968367e-01 -1.387779e-17
         vertex -1.198170e-02 1.965153e-01 -1.387779e-17
      endloop
   endfacet
   facet normal 0.000000e+00 0.000000e+00 -1.000000e+00
      outer loop
         vertex -1.208673e-02 1.968367e-01 -1.387779e-17
         vertex -1.209974e-02 1.970157e-01 -1.387779e-17
         vertex -1.198170e-02 1.965153e-01 -1.387779e-17
      endloop
   endfacet
   facet normal 2.035812e-13 4.802438e-14 -1.000000e+00
      outer loop
         vertex -1.209974e-02 1.970157e-01 -1.387779e-17
         vertex -1.208223e-02 1.972304e-01 0.000000e+00
         vertex -1.198170e-02 1.965153e-01 -1.387779e-17
      endloop
   endfacet
   facet normal 0.000000e+00 0.000000e+00 1.000000e+00
      outer loop
         vertex -1.169163e-02 1.981473e-01 5.000000e-02
         vertex -1.189151e-02 1.978098e-01 5.000000e-02
         vertex -1.198170e-02 1.965153e-01 5.000000e-02
      endloop
   endfacet
   facet normal 0.000000e+00 0.000000e+00 1.000000e+00
      outer loop
         vertex -1.189151e-02 1.978098e-01 5.000000e-02
         vertex -1.201993e-02 1.974925e-01 5.000000e-02
         vertex -1.198170e-02 1.965153e-01 5.000000e-02
      endloop
   endfacet
   facet normal 0.000000e+00 0.000000e+00 1.000000e+00
      outer loop
         vertex -1.201993e-02 1.974925e-01 5.000000e-02
         vertex -1.208223e-02 1.972304e-01 5.000000e-02
         vertex -1.198170e-02 1.965153e-01 5.000000e-02
      endloop
   endfacet
   facet normal 0.000000e+00 0.000000e+00 1.000000e+00
      outer loop
         vertex -1.135620e-02 1.985532e-01 5.000000e-02
         vertex -1.169163e-02 1.981473e-01 5.000000e-02
         vertex -1.198170e-02 1.965153e-01 5.000000e-02
      endloop
   endfacet
   facet normal 0.000000e+00 0.000000e+00 1.000000e+00
      outer loop
         vertex -1.208223e-02 1.972304e-01 5.000000e-02
         vertex -1.209974e-02 1.970157e-01 5.000000e-02
         vertex -1.198170e-02 1.965153e-01 5.000000e-02
      endloop
   endfacet
   facet normal 0.000000e+00 0.000000e+00 1.000000e+00
      outer loop
         vertex -1.209974e-02 1.970157e-01 5.000000e-02
         vertex -1.208673e-02 1.968367e-01 5.000000e-02
         vertex -1.198170e-02 1.965153e-01 5.000000e-02
      endloop
   endfacet
   facet normal 0.000000e+00 0.000000e+00 1.000000e+00
      outer loop
         vertex -1.208673e-02 1.968367e-01 5.000000e-02
         vertex -1.204741e-02 1.966717e-01 5.000000e-02
         vertex -1.198170e-02 1.965153e-01 5.000000e-02
      endloop
   endfacet
   facet normal -9.727257e-01 -2.319584e-01 -0.000000e+00
      outer loop
         vertex -1.208673e-02 1.968367e-01 5.000000e-02
         vertex -1.208673e-02 1.968367e-01 -1.387779e-17
         vertex -1.204741e-02 1.966717e-01 -1.387779e-17
      endloop
   endfacet
   facet normal -9.727257e-01 -2.319584e-01 -0.000000e+00
      outer loop
         vertex -1.204741e-02 1.966717e-01 5.000000e-02
         vertex -1.208673e-02 1.968367e-01 5.000000e-02
         vertex -1.204741e-02 1.966717e-01 -1.387779e-17
      endloop
   endfacet
   facet normal -9.973707e-01 -7.246814e-02 -0.000000e+00
      outer loop
         vertex -1.209974e-02 1.970157e-01 5.000000e-02
         vertex -1.209974e-02 1.970157e-01 -1.387779e-17
         vertex -1.208673e-02 1.968367e-01 -1.387779e-17
      endloop
   endfacet
   facet normal -9.973707e-01 -7.246814e-02 -0.000000e+00
      outer loop
         vertex -1.208673e-02 1.968367e-01 5.000000e-02
         vertex -1.209974e-02 1.970157e-01 5.000000e-02
         vertex -1.208673e-02 1.968367e-01 -1.387779e-17
      endloop
   endfacet
   facet normal -9.966933e-01 8.125537e-02 0.000000e+00
      outer loop
         vertex -1.208223e-02 1.972304e-01 5.000000e-02
         vertex -1.208223e-02 1.972304e-01 0.000000e+00
         vertex -1.209974e-02 1.970157e-01 -1.387779e-17
      endloop
   endfacet
   facet normal -9.966933e-01 8.125537e-02 0.000000e+00
      outer loop
         vertex -1.209974e-02 1.970157e-01 5.000000e-02
         vertex -1.208223e-02 1.972304e-01 5.000000e-02
         vertex -1.209974e-02 1.970157e-01 -1.387779e-17
      endloop
   endfacet
   facet normal 2.850214e-01 -9.585211e-01 0.000000e+00
      outer loop
         vertex 7.415525e-03 1.982198e-01 -1.387779e-17
         vertex 3.891779e-03 1.971720e-01 5.000000e-02
         vertex 3.891779e-03 1.971720e-01 -1.387779e-17
      endloop
   endfacet
   facet normal -5.285034e-16 1.777346e-15 -1.000000e+00
      outer loop
         vertex 2.311425e-03 2.045102e-01 0.000000e+00
         vertex 7.415525e-03 1.982198e-01 -1.387779e-17
         vertex 3.891779e-03 1.971720e-01 -1.387779e-17
      endloop
   endfacet
   facet normal -5.030270e-16 1.782832e-15 -1.000000e+00
      outer loop
         vertex -9.857320e-04 2.035799e-01 0.000000e+00
         vertex 2.311425e-03 2.045102e-01 0.000000e+00
         vertex 3.891779e-03 1.971720e-01 -1.387779e-17
      endloop
   endfacet
   facet normal 2.850214e-01 -9.585211e-01 0.000000e+00
      outer loop
         vertex 7.415525e-03 1.982198e-01 -1.387779e-17
         vertex 7.415525e-03 1.982198e-01 5.000000e-02
         vertex 3.891779e-03 1.971720e-01 5.000000e-02
      endloop
   endfacet
   facet normal 0.000000e+00 0.000000e+00 1.000000e+00
      outer loop
         vertex 7.415525e-03 1.982198e-01 5.000000e-02
         vertex 6.194147e-03 2.054459e-01 5.000000e-02
         vertex 3.891779e-03 1.971720e-01 5.000000e-02
      endloop
   endfacet
   facet normal 0.000000e+00 0.000000e+00 1.000000e+00
      outer loop
         vertex 6.194147e-03 2.054459e-01 5.000000e-02
         vertex 2.311425e-03 2.045102e-01 5.000000e-02
         vertex 3.891779e-03 1.971720e-01 5.000000e-02
      endloop
   endfacet
   facet normal -9.728908e-01 2.312648e-01 0.000000e+00
      outer loop
         vertex -1.201993e-02 1.974925e-01 5.000000e-02
         vertex -1.201993e-02 1.974925e-01 -1.387779e-17
         vertex -1.208223e-02 1.972304e-01 0.000000e+00
      endloop
   endfacet
   facet normal -9.728908e-01 2.312648e-01 0.000000e+00
      outer loop
         vertex -1.208223e-02 1.972304e-01 5.000000e-02
         vertex -1.201993e-02 1.974925e-01 5.000000e-02
         vertex -1.208223e-02 1.972304e-01 0.000000e+00
      endloop
   endfacet
   facet normal -9.269469e-01 3.751926e-01 0.000000e+00
      outer loop
         vertex -1.189151e-02 1.978098e-01 5.000000e-02
         vertex -1.189151e-02 1.978098e-01 0.000000e+00
         vertex -1.201993e-02 1.974925e-01 -1.387779e-17
      endloop
   endfacet
   facet normal -9.269469e-01 3.751926e-01 0.000000e+00
      outer loop
         vertex -1.201993e-02 1.974925e-01 5.000000e-02
         vertex -1.189151e-02 1.978098e-01 5.000000e-02
         vertex -1.201993e-02 1.974925e-01 -1.387779e-17
      endloop
   endfacet
   facet normal -8.604425e-01 5.095475e-01 0.000000e+00
      outer loop
         vertex -1.169163e-02 1.981473e-01 5.000000e-02
         vertex -1.169163e-02 1.981473e-01 -1.387779e-17
         vertex -1.189151e-02 1.978098e-01 0.000000e+00
      endloop
   endfacet
   facet normal -8.604425e-01 5.095475e-01 0.000000e+00
      outer loop
         vertex -1.189151e-02 1.978098e-01 5.000000e-02
         vertex -1.169163e-02 1.981473e-01 5.000000e-02
         vertex -1.189151e-02 1.978098e-01 0.000000e+00
      endloop
   endfacet
   facet normal -7.708194e-01 6.370538e-01 0.000000e+00
      outer loop
         vertex -1.135620e-02 1.985532e-01 5.000000e-02
         vertex -1.135620e-02 1.985532e-01 0.000000e+00
         vertex -1.169163e-02 1.981473e-01 -1.387779e-17
      endloop
   endfacet
   facet normal -7.708194e-01 6.370538e-01 0.000000e+00
      outer loop
         vertex -1.169163e-02 1.981473e-01 5.000000e-02
         vertex -1.135620e-02 1.985532e-01 5.000000e-02
         vertex -1.169163e-02 1.981473e-01 -1.387779e-17
      endloop
   endfacet
   facet normal 3.155566e-01 -9.489068e-01 0.000000e+00
      outer loop
         vertex 1.144561e-02 1.995600e-01 -1.387779e-17
         vertex 7.415525e-03 1.982198e-01 5.000000e-02
         vertex 7.415525e-03 1.982198e-01 -1.387779e-17
      endloop
   endfacet
   facet normal -6.046673e-16 1.818289e-15 -1.000000e+00
      outer loop
         vertex 6.194147e-03 2.054459e-01 0.000000e+00
         vertex 1.144561e-02 1.995600e-01 -1.387779e-17
         vertex 7.415525e-03 1.982198e-01 -1.387779e-17
      endloop
   endfacet
   facet normal -4.447283e-16 1.845322e-15 -1.000000e+00
      outer loop
         vertex 2.311425e-03 2.045102e-01 0.000000e+00
         vertex 6.194147e-03 2.054459e-01 0.000000e+00
         vertex 7.415525e-03 1.982198e-01 -1.387779e-17
      endloop
   endfacet
   facet normal 3.155566e-01 -9.489068e-01 0.000000e+00
      outer loop
         vertex 1.144561e-02 1.995600e-01 -1.387779e-17
         vertex 1.144561e-02 1.995600e-01 5.000000e-02
         vertex 7.415525e-03 1.982198e-01 5.000000e-02
      endloop
   endfacet
   facet normal 0.000000e+00 0.000000e+00 1.000000e+00
      outer loop
         vertex 1.144561e-02 1.995600e-01 5.000000e-02
         vertex 1.073607e-02 2.063829e-01 5.000000e-02
         vertex 7.415525e-03 1.982198e-01 5.000000e-02
      endloop
   endfacet
   facet normal 0.000000e+00 0.000000e+00 1.000000e+00
      outer loop
         vertex 1.073607e-02 2.063829e-01 5.000000e-02
         vertex 6.194147e-03 2.054459e-01 5.000000e-02
         vertex 7.415525e-03 1.982198e-01 5.000000e-02
      endloop
   endfacet
   facet normal -6.807313e-01 7.325332e-01 0.000000e+00
      outer loop
         vertex -1.072256e-02 1.991420e-01 5.000000e-02
         vertex -1.072256e-02 1.991420e-01 0.000000e+00
         vertex -1.135620e-02 1.985532e-01 0.000000e+00
      endloop
   endfacet
   facet normal -6.807313e-01 7.325332e-01 0.000000e+00
      outer loop
         vertex -1.135620e-02 1.985532e-01 5.000000e-02
         vertex -1.072256e-02 1.991420e-01 5.000000e-02
         vertex -1.135620e-02 1.985532e-01 0.000000e+00
      endloop
   endfacet
   facet normal -5.843243e-01 8.115202e-01 0.000000e+00
      outer loop
         vertex -9.578806e-03 1.999656e-01 5.000000e-02
         vertex -9.578806e-03 1.999656e-01 0.000000e+00
         vertex -1.072256e-02 1.991420e-01 0.000000e+00
      endloop
   endfacet
   facet normal -5.843243e-01 8.115202e-01 0.000000e+00
      outer loop
         vertex -1.072256e-02 1.991420e-01 5.000000e-02
         vertex -9.578806e-03 1.999656e-01 5.000000e-02
         vertex -1.072256e-02 1.991420e-01 0.000000e+00
      endloop
   endfacet
   facet normal 3.402427e-01 -9.403377e-01 0.000000e+00
      outer loop
         vertex 1.560980e-02 2.010667e-01 -1.387779e-17
         vertex 1.144561e-02 1.995600e-01 5.000000e-02
         vertex 1.144561e-02 1.995600e-01 -1.387779e-17
      endloop
   endfacet
   facet normal 0.000000e+00 0.000000e+00 -1.000000e+00
      outer loop
         vertex 1.073607e-02 2.063829e-01 -1.387779e-17
         vertex 1.560980e-02 2.010667e-01 -1.387779e-17
         vertex 1.144561e-02 1.995600e-01 -1.387779e-17
      endloop
   endfacet
   facet normal -2.991317e-15 -3.110798e-16 -1.000000e+00
      outer loop
         vertex 6.194147e-03 2.054459e-01 0.000000e+00
         vertex 1.073607e-02 2.063829e-01 -1.387779e-17
         vertex 1.144561e-02 1.995600e-01 -1.387779e-17
      endloop
   endfacet
   facet normal 3.402427e-01 -9.403377e-01 0.000000e+00
      outer loop
         vertex 1.560980e-02 2.010667e-01 -1.387779e-17
         vertex 1.560980e-02 2.010667e-01 5.000000e-02
         vertex 1.144561e-02 1.995600e-01 5.000000e-02
      endloop
   endfacet
   facet normal 0.000000e+00 0.000000e+00 1.000000e+00
      outer loop
         vertex 1.560980e-02 2.010667e-01 5.000000e-02
         vertex 1.073607e-02 2.063829e-01 5.000000e-02
         vertex 1.144561e-02 1.995600e-01 5.000000e-02
      endloop
   endfacet
   facet normal -4.990477e-01 8.665745e-01 0.000000e+00
      outer loop
         vertex -8.258291e-03 2.007260e-01 5.000000e-02
         vertex -8.258291e-03 2.007260e-01 0.000000e+00
         vertex -9.578806e-03 1.999656e-01 0.000000e+00
      endloop
   endfacet
   facet normal -4.990477e-01 8.665745e-01 0.000000e+00
      outer loop
         vertex -9.578806e-03 1.999656e-01 5.000000e-02
         vertex -8.258291e-03 2.007260e-01 5.000000e-02
         vertex -9.578806e-03 1.999656e-01 0.000000e+00
      endloop
   endfacet
   facet normal -4.289281e-01 9.033386e-01 0.000000e+00
      outer loop
         vertex -6.209930e-03 2.016987e-01 5.000000e-02
         vertex -6.209930e-03 2.016987e-01 0.000000e+00
         vertex -8.258291e-03 2.007260e-01 0.000000e+00
      endloop
   endfacet
   facet normal -4.289281e-01 9.033386e-01 0.000000e+00
      outer loop
         vertex -8.258291e-03 2.007260e-01 5.000000e-02
         vertex -6.209930e-03 2.016987e-01 5.000000e-02
         vertex -8.258291e-03 2.007260e-01 0.000000e+00
      endloop
   endfacet
   facet normal 3.617292e-01 -9.322832e-01 0.000000e+00
      outer loop
         vertex 2.093393e-02 2.031325e-01 0.000000e+00
         vertex 1.560980e-02 2.010667e-01 5.000000e-02
         vertex 1.560980e-02 2.010667e-01 -1.387779e-17
      endloop
   endfacet
   facet normal 1.922671e-15 1.762654e-15 -1.000000e+00
      outer loop
         vertex 1.073607e-02 2.063829e-01 -1.387779e-17
         vertex 2.093393e-02 2.031325e-01 0.000000e+00
         vertex 1.560980e-02 2.010667e-01 -1.387779e-17
      endloop
   endfacet
   facet normal 3.617292e-01 -9.322832e-01 0.000000e+00
      outer loop
         vertex 2.093393e-02 2.031325e-01 0.000000e+00
         vertex 2.093393e-02 2.031325e-01 5.000000e-02
         vertex 1.560980e-02 2.010667e-01 5.000000e-02
      endloop
   endfacet
   facet normal 0.000000e+00 0.000000e+00 1.000000e+00
      outer loop
         vertex 2.093393e-02 2.031325e-01 5.000000e-02
         vertex 1.655142e-02 2.074078e-01 5.000000e-02
         vertex 1.560980e-02 2.010667e-01 5.000000e-02
      endloop
   endfacet
   facet normal 0.000000e+00 0.000000e+00 1.000000e+00
      outer loop
         vertex 1.655142e-02 2.074078e-01 5.000000e-02
         vertex 1.073607e-02 2.063829e-01 5.000000e-02
         vertex 1.560980e-02 2.010667e-01 5.000000e-02
      endloop
   endfacet
   facet normal -3.676260e-01 9.299737e-01 0.000000e+00
      outer loop
         vertex -3.962173e-03 2.025872e-01 5.000000e-02
         vertex -3.962173e-03 2.025872e-01 0.000000e+00
         vertex -6.209930e-03 2.016987e-01 0.000000e+00
      endloop
   endfacet
   facet normal -3.676260e-01 9.299737e-01 0.000000e+00
      outer loop
         vertex -6.209930e-03 2.016987e-01 5.000000e-02
         vertex -3.962173e-03 2.025872e-01 5.000000e-02
         vertex -6.209930e-03 2.016987e-01 0.000000e+00
      endloop
   endfacet
   facet normal -3.163780e-01 9.486332e-01 0.000000e+00
      outer loop
         vertex -9.857320e-04 2.035799e-01 5.000000e-02
         vertex -9.857320e-04 2.035799e-01 0.000000e+00
         vertex -3.962173e-03 2.025872e-01 0.000000e+00
      endloop
   endfacet
   facet normal -3.163780e-01 9.486332e-01 0.000000e+00
      outer loop
         vertex -3.962173e-03 2.025872e-01 5.000000e-02
         vertex -9.857320e-04 2.035799e-01 5.000000e-02
         vertex -3.962173e-03 2.025872e-01 0.000000e+00
      endloop
   endfacet
   facet normal 3.821632e-01 -9.240949e-01 0.000000e+00
      outer loop
         vertex 2.694748e-02 2.056194e-01 -1.387779e-17
         vertex 2.093393e-02 2.031325e-01 5.000000e-02
         vertex 2.093393e-02 2.031325e-01 0.000000e+00
      endloop
   endfacet
   facet normal 0.000000e+00 0.000000e+00 -1.000000e+00
      outer loop
         vertex 1.655142e-02 2.074078e-01 0.000000e+00
         vertex 2.294365e-02 2.083694e-01 0.000000e+00
         vertex 2.093393e-02 2.031325e-01 0.000000e+00
      endloop
   endfacet
   facet normal 2.021230e-15 2.071872e-15 -1.000000e+00
      outer loop
         vertex 1.073607e-02 2.063829e-01 -1.387779e-17
         vertex 1.655142e-02 2.074078e-01 0.000000e+00
         vertex 2.093393e-02 2.031325e-01 0.000000e+00
      endloop
   endfacet
   facet normal -2.743094e-15 1.052685e-15 -1.000000e+00
      outer loop
         vertex 2.294365e-02 2.083694e-01 0.000000e+00
         vertex 2.694748e-02 2.056194e-01 -1.387779e-17
         vertex 2.093393e-02 2.031325e-01 0.000000e+00
      endloop
   endfacet
   facet normal 3.821632e-01 -9.240949e-01 0.000000e+00
      outer loop
         vertex 2.694748e-02 2.056194e-01 -1.387779e-17
         vertex 2.694748e-02 2.056194e-01 5.000000e-02
         vertex 2.093393e-02 2.031325e-01 5.000000e-02
      endloop
   endfacet
   facet normal 0.000000e+00 0.000000e+00 1.000000e+00
      outer loop
         vertex 2.694748e-02 2.056194e-01 5.000000e-02
         vertex 2.294365e-02 2.083694e-01 5.000000e-02
         vertex 2.093393e-02 2.031325e-01 5.000000e-02
      endloop
   endfacet
   facet normal 0.000000e+00 0.000000e+00 1.000000e+00
      outer loop
         vertex 2.294365e-02 2.083694e-01 5.000000e-02
         vertex 1.655142e-02 2.074078e-01 5.000000e-02
         vertex 2.093393e-02 2.031325e-01 5.000000e-02
      endloop
   endfacet
   facet normal -2.715486e-01 9.624247e-01 0.000000e+00
      outer loop
         vertex 2.311425e-03 2.045102e-01 5.000000e-02
         vertex 2.311425e-03 2.045102e-01 0.000000e+00
         vertex -9.857320e-04 2.035799e-01 0.000000e+00
      endloop
   endfacet
   facet normal -2.715486e-01 9.624247e-01 0.000000e+00
      outer loop
         vertex -9.857320e-04 2.035799e-01 5.000000e-02
         vertex 2.311425e-03 2.045102e-01 5.000000e-02
         vertex -9.857320e-04 2.035799e-01 0.000000e+00
      endloop
   endfacet
   facet normal -2.342950e-01 9.721656e-01 0.000000e+00
      outer loop
         vertex 6.194147e-03 2.054459e-01 5.000000e-02
         vertex 6.194147e-03 2.054459e-01 0.000000e+00
         vertex 2.311425e-03 2.045102e-01 0.000000e+00
      endloop
   endfacet
   facet normal -2.342950e-01 9.721656e-01 0.000000e+00
      outer loop
         vertex 2.311425e-03 2.045102e-01 5.000000e-02
         vertex 6.194147e-03 2.054459e-01 5.000000e-02
         vertex 2.311425e-03 2.045102e-01 0.000000e+00
      endloop
   endfacet
   facet normal -2.020333e-01 9.793787e-01 0.000000e+00
      outer loop
         vertex 1.073607e-02 2.063829e-01 5.000000e-02
         vertex 1.073607e-02 2.063829e-01 -1.387779e-17
         vertex 6.194147e-03 2.054459e-01 0.000000e+00
      endloop
   endfacet
   facet normal -2.020333e-01 9.793787e-01 0.000000e+00
      outer loop
         vertex 6.194147e-03 2.054459e-01 5.000000e-02
         vertex 1.073607e-02 2.063829e-01 5.000000e-02
         vertex 6.194147e-03 2.054459e-01 0.000000e+00
      endloop
   endfacet
   facet normal 4.030176e-01 -9.151922e-01 0.000000e+00
      outer loop
         vertex 3.356276e-02 2.085325e-01 -1.387779e-17
         vertex 2.694748e-02 2.056194e-01 5.000000e-02
         vertex 2.694748e-02 2.056194e-01 -1.387779e-17
      endloop
   endfacet
   facet normal -1.354100e-15 3.074957e-15 -1.000000e+00
      outer loop
         vertex 2.294365e-02 2.083694e-01 0.000000e+00
         vertex 3.356276e-02 2.085325e-01 -1.387779e-17
         vertex 2.694748e-02 2.056194e-01 -1.387779e-17
      endloop
   endfacet
   facet normal 4.030176e-01 -9.151922e-01 0.000000e+00
      outer loop
         vertex 3.356276e-02 2.085325e-01 -1.387779e-17
         vertex 3.356276e-02 2.085325e-01 5.000000e-02
         vertex 2.694748e-02 2.056194e-01 5.000000e-02
      endloop
   endfacet
   facet normal 0.000000e+00 0.000000e+00 1.000000e+00
      outer loop
         vertex 3.356276e-02 2.085325e-01 5.000000e-02
         vertex 2.989463e-02 2.092546e-01 5.000000e-02
         vertex 2.694748e-02 2.056194e-01 5.000000e-02
      endloop
   endfacet
   facet normal 0.000000e+00 0.000000e+00 1.000000e+00
      outer loop
         vertex 2.989463e-02 2.092546e-01 5.000000e-02
         vertex 2.294365e-02 2.083694e-01 5.000000e-02
         vertex 2.694748e-02 2.056194e-01 5.000000e-02
      endloop
   endfacet
   facet normal -1.735779e-01 9.848201e-01 0.000000e+00
      outer loop
         vertex 1.655142e-02 2.074078e-01 5.000000e-02
         vertex 1.655142e-02 2.074078e-01 0.000000e+00
         vertex 1.073607e-02 2.063829e-01 -1.387779e-17
      endloop
   endfacet
   facet normal -1.735779e-01 9.848201e-01 0.000000e+00
      outer loop
         vertex 1.073607e-02 2.063829e-01 5.000000e-02
         vertex 1.655142e-02 2.074078e-01 5.000000e-02
         vertex 1.073607e-02 2.063829e-01 -1.387779e-17
      endloop
   endfacet
   facet normal -1.487547e-01 9.888741e-01 0.000000e+00
      outer loop
         vertex 2.294365e-02 2.083694e-01 5.000000e-02
         vertex 2.294365e-02 2.083694e-01 0.000000e+00
         vertex 1.655142e-02 2.074078e-01 0.000000e+00
      endloop
   endfacet
   facet normal -1.487547e-01 9.888741e-01 0.000000e+00
      outer loop
         vertex 1.655142e-02 2.074078e-01 5.000000e-02
         vertex 2.294365e-02 2.083694e-01 5.000000e-02
         vertex 1.655142e-02 2.074078e-01 0.000000e+00
      endloop
   endfacet
   facet normal -1.263272e-01 9.919886e-01 0.000000e+00
      outer loop
         vertex 2.989463e-02 2.092546e-01 5.000000e-02
         vertex 2.989463e-02 2.092546e-01 -1.387779e-17
         vertex 2.294365e-02 2.083694e-01 0.000000e+00
      endloop
   endfacet
   facet normal -1.263272e-01 9.919886e-01 0.000000e+00
      outer loop
         vertex 2.294365e-02 2.083694e-01 5.000000e-02
         vertex 2.989463e-02 2.092546e-01 5.000000e-02
         vertex 2.294365e-02 2.083694e-01 0.000000e+00
      endloop
   endfacet
   facet normal -1.212278e-15 -6.158321e-15 -1.000000e+00
      outer loop
         vertex 2.989463e-02 2.092546e-01 -1.387779e-17
         vertex 3.356276e-02 2.085325e-01 -1.387779e-17
         vertex 2.294365e-02 2.083694e-01 0.000000e+00
      endloop
   endfacet
   facet normal 4.196419e-01 -9.076898e-01 0.000000e+00
      outer loop
         vertex 3.620883e-02 2.097559e-01 -2.775558e-17
         vertex 3.356276e-02 2.085325e-01 5.000000e-02
         vertex 3.356276e-02 2.085325e-01 -1.387779e-17
      endloop
   endfacet
   facet normal -1.566252e-15 -7.956493e-15 -1.000000e+00
      outer loop
         vertex 2.989463e-02 2.092546e-01 -1.387779e-17
         vertex 3.620883e-02 2.097559e-01 -2.775558e-17
         vertex 3.356276e-02 2.085325e-01 -1.387779e-17
      endloop
   endfacet
   facet normal 4.196419e-01 -9.076898e-01 0.000000e+00
      outer loop
         vertex 3.620883e-02 2.097559e-01 -2.775558e-17
         vertex 3.620883e-02 2.097559e-01 5.000000e-02
         vertex 3.356276e-02 2.085325e-01 5.000000e-02
      endloop
   endfacet
   facet normal 0.000000e+00 0.000000e+00 1.000000e+00
      outer loop
         vertex 3.620883e-02 2.097559e-01 5.000000e-02
         vertex 3.616741e-02 2.099083e-01 5.000000e-02
         vertex 3.356276e-02 2.085325e-01 5.000000e-02
      endloop
   endfacet
   facet normal 0.000000e+00 0.000000e+00 1.000000e+00
      outer loop
         vertex 3.616741e-02 2.099083e-01 5.000000e-02
         vertex 2.989463e-02 2.092546e-01 5.000000e-02
         vertex 3.356276e-02 2.085325e-01 5.000000e-02
      endloop
   endfacet
   facet normal -1.036554e-01 9.946133e-01 0.000000e+00
      outer loop
         vertex 3.616741e-02 2.099083e-01 5.000000e-02
         vertex 3.616741e-02 2.099083e-01 -2.775558e-17
         vertex 2.989463e-02 2.092546e-01 -1.387779e-17
      endloop
   endfacet
   facet normal -1.036554e-01 9.946133e-01 0.000000e+00
      outer loop
         vertex 2.989463e-02 2.092546e-01 5.000000e-02
         vertex 3.616741e-02 2.099083e-01 5.000000e-02
         vertex 2.989463e-02 2.092546e-01 -1.387779e-17
      endloop
   endfacet
   facet normal -2.151469e-15 -5.844897e-16 -1.000000e+00
      outer loop
         vertex 3.616741e-02 2.099083e-01 -2.775558e-17
         vertex 3.620883e-02 2.097559e-01 -2.775558e-17
         vertex 2.989463e-02 2.092546e-01 -1.387779e-17
      endloop
   endfacet
   facet normal 9.650223e-01 2.621677e-01 0.000000e+00
      outer loop
         vertex 3.616741e-02 2.099083e-01 -2.775558e-17
         vertex 3.620883e-02 2.097559e-01 5.000000e-02
         vertex 3.620883e-02 2.097559e-01 -2.775558e-17
      endloop
   endfacet
   facet normal 9.650223e-01 2.621677e-01 -0.000000e+00
      outer loop
         vertex 3.616741e-02 2.099083e-01 -2.775558e-17
         vertex 3.616741e-02 2.099083e-01 5.000000e-02
         vertex 3.620883e-02 2.097559e-01 5.000000e-02
      endloop
   endfacet
   facet normal -1.255545e-02 -9.999212e-01 -0.000000e+00
      outer loop
         vertex 6.238438e-02 1.962902e-01 5.000000e-02
         vertex 6.238438e-02 1.962902e-01 0.000000e+00
         vertex 6.553753e-02 1.962506e-01 0.000000e+00
      endloop
   endfacet
   facet normal -1.255545e-02 -9.999212e-01 -0.000000e+00
      outer loop
         vertex 6.553753e-02 1.962506e-01 5.000000e-02
         vertex 6.238438e-02 1.962902e-01 5.000000e-02
         vertex 6.553753e-02 1.962506e-01 0.000000e+00
      endloop
   endfacet
   facet normal 2.398282e-02 -9.997124e-01 0.000000e+00
      outer loop
         vertex 6.921846e-02 1.963390e-01 0.000000e+00
         vertex 6.553753e-02 1.962506e-01 5.000000e-02
         vertex 6.553753e-02 1.962506e-01 0.000000e+00
      endloop
   endfacet
   facet normal 0.000000e+00 -0.000000e+00 -1.000000e+00
      outer loop
         vertex 6.590924e-02 2.037464e-01 0.000000e+00
         vertex 6.921846e-02 1.963390e-01 0.000000e+00
         vertex 6.553753e-02 1.962506e-01 0.000000e+00
      endloop
   endfacet
   facet normal 0.000000e+00 0.000000e+00 -1.000000e+00
      outer loop
         vertex 6.248184e-02 2.037129e-01 0.000000e+00
         vertex 6.590924e-02 2.037464e-01 0.000000e+00
         vertex 6.553753e-02 1.962506e-01 0.000000e+00
      endloop
   endfacet
   facet normal 0.000000e+00 0.000000e+00 -1.000000e+00
      outer loop
         vertex 6.238438e-02 1.962902e-01 0.000000e+00
         vertex 6.248184e-02 2.037129e-01 0.000000e+00
         vertex 6.553753e-02 1.962506e-01 0.000000e+00
      endloop
   endfacet
   facet normal 2.398282e-02 -9.997124e-01 0.000000e+00
      outer loop
         vertex 6.921846e-02 1.963390e-01 0.000000e+00
         vertex 6.921846e-02 1.963390e-01 5.000000e-02
         vertex 6.553753e-02 1.962506e-01 5.000000e-02
      endloop
   endfacet
   facet normal 0.000000e+00 -0.000000e+00 1.000000e+00
      outer loop
         vertex 6.921846e-02 1.963390e-01 5.000000e-02
         vertex 6.990311e-02 2.036315e-01 5.000000e-02
         vertex 6.553753e-02 1.962506e-01 5.000000e-02
      endloop
   endfacet
   facet normal 0.000000e+00 0.000000e+00 1.000000e+00
      outer loop
         vertex 6.990311e-02 2.036315e-01 5.000000e-02
         vertex 6.590924e-02 2.037464e-01 5.000000e-02
         vertex 6.553753e-02 1.962506e-01 5.000000e-02
      endloop
   endfacet
   facet normal 0.000000e+00 0.000000e+00 1.000000e+00
      outer loop
         vertex 6.590924e-02 2.037464e-01 5.000000e-02
         vertex 6.238438e-02 1.962902e-01 5.000000e-02
         vertex 6.553753e-02 1.962506e-01 5.000000e-02
      endloop
   endfacet
   facet normal 0.000000e+00 0.000000e+00 -1.000000e+00
      outer loop
         vertex 5.937130e-02 2.035369e-01 0.000000e+00
         vertex 6.248184e-02 2.037129e-01 0.000000e+00
         vertex 6.238438e-02 1.962902e-01 0.000000e+00
      endloop
   endfacet
   facet normal 0.000000e+00 0.000000e+00 -1.000000e+00
      outer loop
         vertex 5.927088e-02 1.964716e-01 0.000000e+00
         vertex 5.937130e-02 2.035369e-01 0.000000e+00
         vertex 6.238438e-02 1.962902e-01 0.000000e+00
      endloop
   endfacet
   facet normal -5.815632e-02 -9.983075e-01 -0.000000e+00
      outer loop
         vertex 5.927088e-02 1.964716e-01 5.000000e-02
         vertex 5.927088e-02 1.964716e-01 0.000000e+00
         vertex 6.238438e-02 1.962902e-01 0.000000e+00
      endloop
   endfacet
   facet normal -5.815632e-02 -9.983075e-01 -0.000000e+00
      outer loop
         vertex 6.238438e-02 1.962902e-01 5.000000e-02
         vertex 5.927088e-02 1.964716e-01 5.000000e-02
         vertex 6.238438e-02 1.962902e-01 0.000000e+00
      endloop
   endfacet
   facet normal 0.000000e+00 0.000000e+00 1.000000e+00
      outer loop
         vertex 6.590924e-02 2.037464e-01 5.000000e-02
         vertex 6.248184e-02 2.037129e-01 5.000000e-02
         vertex 6.238438e-02 1.962902e-01 5.000000e-02
      endloop
   endfacet
   facet normal 0.000000e+00 0.000000e+00 1.000000e+00
      outer loop
         vertex 6.248184e-02 2.037129e-01 5.000000e-02
         vertex 5.927088e-02 1.964716e-01 5.000000e-02
         vertex 6.238438e-02 1.962902e-01 5.000000e-02
      endloop
   endfacet
   facet normal 5.594735e-02 -9.984337e-01 0.000000e+00
      outer loop
         vertex 7.346502e-02 1.965769e-01 6.938894e-18
         vertex 6.921846e-02 1.963390e-01 5.000000e-02
         vertex 6.921846e-02 1.963390e-01 0.000000e+00
      endloop
   endfacet
   facet normal 1.642644e-15 -1.542174e-16 -1.000000e+00
      outer loop
         vertex 6.990311e-02 2.036315e-01 0.000000e+00
         vertex 7.346502e-02 1.965769e-01 6.938894e-18
         vertex 6.921846e-02 1.963390e-01 0.000000e+00
      endloop
   endfacet
   facet normal 0.000000e+00 0.000000e+00 -1.000000e+00
      outer loop
         vertex 6.590924e-02 2.037464e-01 0.000000e+00
         vertex 6.990311e-02 2.036315e-01 0.000000e+00
         vertex 6.921846e-02 1.963390e-01 0.000000e+00
      endloop
   endfacet
   facet normal 5.594735e-02 -9.984337e-01 0.000000e+00
      outer loop
         vertex 7.346502e-02 1.965769e-01 6.938894e-18
         vertex 7.346502e-02 1.965769e-01 5.000000e-02
         vertex 6.921846e-02 1.963390e-01 5.000000e-02
      endloop
   endfacet
   facet normal 0.000000e+00 -0.000000e+00 1.000000e+00
      outer loop
         vertex 7.346502e-02 1.965769e-01 5.000000e-02
         vertex 7.453401e-02 2.033447e-01 5.000000e-02
         vertex 6.921846e-02 1.963390e-01 5.000000e-02
      endloop
   endfacet
   facet normal 0.000000e+00 0.000000e+00 1.000000e+00
      outer loop
         vertex 7.453401e-02 2.033447e-01 5.000000e-02
         vertex 6.990311e-02 2.036315e-01 5.000000e-02
         vertex 6.921846e-02 1.963390e-01 5.000000e-02
      endloop
   endfacet
   facet normal -1.151991e-01 -9.933424e-01 -0.000000e+00
      outer loop
         vertex 5.669041e-02 1.967709e-01 5.000000e-02
         vertex 5.669041e-02 1.967709e-01 0.000000e+00
         vertex 5.927088e-02 1.964716e-01 0.000000e+00
      endloop
   endfacet
   facet normal -1.151991e-01 -9.933424e-01 -0.000000e+00
      outer loop
         vertex 5.927088e-02 1.964716e-01 5.000000e-02
         vertex 5.669041e-02 1.967709e-01 5.000000e-02
         vertex 5.927088e-02 1.964716e-01 0.000000e+00
      endloop
   endfacet
   facet normal 0.000000e+00 0.000000e+00 -1.000000e+00
      outer loop
         vertex 5.696495e-02 2.032692e-01 0.000000e+00
         vertex 5.937130e-02 2.035369e-01 0.000000e+00
         vertex 5.927088e-02 1.964716e-01 0.000000e+00
      endloop
   endfacet
   facet normal 0.000000e+00 0.000000e+00 -1.000000e+00
      outer loop
         vertex 5.669041e-02 1.967709e-01 0.000000e+00
         vertex 5.696495e-02 2.032692e-01 0.000000e+00
         vertex 5.927088e-02 1.964716e-01 0.000000e+00
      endloop
   endfacet
   facet normal 0.000000e+00 0.000000e+00 1.000000e+00
      outer loop
         vertex 6.248184e-02 2.037129e-01 5.000000e-02
         vertex 5.937130e-02 2.035369e-01 5.000000e-02
         vertex 5.927088e-02 1.964716e-01 5.000000e-02
      endloop
   endfacet
   facet normal 0.000000e+00 0.000000e+00 1.000000e+00
      outer loop
         vertex 5.937130e-02 2.035369e-01 5.000000e-02
         vertex 5.696495e-02 2.032692e-01 5.000000e-02
         vertex 5.927088e-02 1.964716e-01 5.000000e-02
      endloop
   endfacet
   facet normal 0.000000e+00 0.000000e+00 1.000000e+00
      outer loop
         vertex 5.696495e-02 2.032692e-01 5.000000e-02
         vertex 5.669041e-02 1.967709e-01 5.000000e-02
         vertex 5.927088e-02 1.964716e-01 5.000000e-02
      endloop
   endfacet
   facet normal -1.560103e-15 -7.788599e-16 -1.000000e+00
      outer loop
         vertex 7.453401e-02 2.033447e-01 0.000000e+00
         vertex 7.773802e-02 1.969269e-01 0.000000e+00
         vertex 7.346502e-02 1.965769e-01 6.938894e-18
      endloop
   endfacet
   facet normal -6.287649e-17 -1.015350e-15 -1.000000e+00
      outer loop
         vertex 6.990311e-02 2.036315e-01 0.000000e+00
         vertex 7.453401e-02 2.033447e-01 0.000000e+00
         vertex 7.346502e-02 1.965769e-01 6.938894e-18
      endloop
   endfacet
   facet normal 8.162546e-02 -9.966631e-01 0.000000e+00
      outer loop
         vertex 7.773802e-02 1.969269e-01 0.000000e+00
         vertex 7.346502e-02 1.965769e-01 5.000000e-02
         vertex 7.346502e-02 1.965769e-01 6.938894e-18
      endloop
   endfacet
   facet normal 8.162546e-02 -9.966631e-01 0.000000e+00
      outer loop
         vertex 7.773802e-02 1.969269e-01 0.000000e+00
         vertex 7.773802e-02 1.969269e-01 5.000000e-02
         vertex 7.346502e-02 1.965769e-01 5.000000e-02
      endloop
   endfacet
   facet normal 0.000000e+00 0.000000e+00 1.000000e+00
      outer loop
         vertex 7.773802e-02 1.969269e-01 5.000000e-02
         vertex 7.453401e-02 2.033447e-01 5.000000e-02
         vertex 7.346502e-02 1.965769e-01 5.000000e-02
      endloop
   endfacet
   facet normal -1.835408e-01 -9.830121e-01 -0.000000e+00
      outer loop
         vertex 5.460742e-02 1.971598e-01 5.000000e-02
         vertex 5.460742e-02 1.971598e-01 0.000000e+00
         vertex 5.669041e-02 1.967709e-01 0.000000e+00
      endloop
   endfacet
   facet normal -1.835408e-01 -9.830121e-01 -0.000000e+00
      outer loop
         vertex 5.669041e-02 1.967709e-01 5.000000e-02
         vertex 5.460742e-02 1.971598e-01 5.000000e-02
         vertex 5.669041e-02 1.967709e-01 0.000000e+00
      endloop
   endfacet
   facet normal 0.000000e+00 0.000000e+00 -1.000000e+00
      outer loop
         vertex 5.473110e-02 2.028681e-01 0.000000e+00
         vertex 5.696495e-02 2.032692e-01 0.000000e+00
         vertex 5.669041e-02 1.967709e-01 0.000000e+00
      endloop
   endfacet
   facet normal 0.000000e+00 0.000000e+00 -1.000000e+00
      outer loop
         vertex 5.460742e-02 1.971598e-01 0.000000e+00
         vertex 5.473110e-02 2.028681e-01 0.000000e+00
         vertex 5.669041e-02 1.967709e-01 0.000000e+00
      endloop
   endfacet
   facet normal 0.000000e+00 0.000000e+00 1.000000e+00
      outer loop
         vertex 5.696495e-02 2.032692e-01 5.000000e-02
         vertex 5.473110e-02 2.028681e-01 5.000000e-02
         vertex 5.669041e-02 1.967709e-01 5.000000e-02
      endloop
   endfacet
   facet normal 0.000000e+00 0.000000e+00 1.000000e+00
      outer loop
         vertex 5.473110e-02 2.028681e-01 5.000000e-02
         vertex 5.460742e-02 1.971598e-01 5.000000e-02
         vertex 5.669041e-02 1.967709e-01 5.000000e-02
      endloop
   endfacet
   facet normal 1.042209e-01 -9.945542e-01 0.000000e+00
      outer loop
         vertex 8.342012e-02 1.975223e-01 0.000000e+00
         vertex 7.773802e-02 1.969269e-01 5.000000e-02
         vertex 7.773802e-02 1.969269e-01 0.000000e+00
      endloop
   endfacet
   facet normal 0.000000e+00 0.000000e+00 -1.000000e+00
      outer loop
         vertex 7.453401e-02 2.033447e-01 0.000000e+00
         vertex 8.342012e-02 1.975223e-01 0.000000e+00
         vertex 7.773802e-02 1.969269e-01 0.000000e+00
      endloop
   endfacet
   facet normal 1.042209e-01 -9.945542e-01 0.000000e+00
      outer loop
         vertex 8.342012e-02 1.975223e-01 0.000000e+00
         vertex 8.342012e-02 1.975223e-01 5.000000e-02
         vertex 7.773802e-02 1.969269e-01 5.000000e-02
      endloop
   endfacet
   facet normal 0.000000e+00 0.000000e+00 1.000000e+00
      outer loop
         vertex 8.342012e-02 1.975223e-01 5.000000e-02
         vertex 8.040480e-02 2.028101e-01 5.000000e-02
         vertex 7.773802e-02 1.969269e-01 5.000000e-02
      endloop
   endfacet
   facet normal 0.000000e+00 0.000000e+00 1.000000e+00
      outer loop
         vertex 8.040480e-02 2.028101e-01 5.000000e-02
         vertex 7.453401e-02 2.033447e-01 5.000000e-02
         vertex 7.773802e-02 1.969269e-01 5.000000e-02
      endloop
   endfacet
   facet normal -2.644180e-01 -9.644082e-01 -0.000000e+00
      outer loop
         vertex 5.300853e-02 1.975982e-01 5.000000e-02
         vertex 5.300853e-02 1.975982e-01 0.000000e+00
         vertex 5.460742e-02 1.971598e-01 0.000000e+00
      endloop
   endfacet
   facet normal -2.644180e-01 -9.644082e-01 -0.000000e+00
      outer loop
         vertex 5.460742e-02 1.971598e-01 5.000000e-02
         vertex 5.300853e-02 1.975982e-01 5.000000e-02
         vertex 5.460742e-02 1.971598e-01 0.000000e+00
      endloop
   endfacet
   facet normal 0.000000e+00 0.000000e+00 -1.000000e+00
      outer loop
         vertex 5.325432e-02 2.024804e-01 0.000000e+00
         vertex 5.473110e-02 2.028681e-01 0.000000e+00
         vertex 5.460742e-02 1.971598e-01 0.000000e+00
      endloop
   endfacet
   facet normal 0.000000e+00 0.000000e+00 -1.000000e+00
      outer loop
         vertex 5.300853e-02 1.975982e-01 0.000000e+00
         vertex 5.325432e-02 2.024804e-01 0.000000e+00
         vertex 5.460742e-02 1.971598e-01 0.000000e+00
      endloop
   endfacet
   facet normal 0.000000e+00 0.000000e+00 1.000000e+00
      outer loop
         vertex 5.473110e-02 2.028681e-01 5.000000e-02
         vertex 5.325432e-02 2.024804e-01 5.000000e-02
         vertex 5.460742e-02 1.971598e-01 5.000000e-02
      endloop
   endfacet
   facet normal 0.000000e+00 0.000000e+00 1.000000e+00
      outer loop
         vertex 5.325432e-02 2.024804e-01 5.000000e-02
         vertex 5.300853e-02 1.975982e-01 5.000000e-02
         vertex 5.460742e-02 1.971598e-01 5.000000e-02
      endloop
   endfacet
   facet normal 1.261416e-01 -9.920123e-01 0.000000e+00
      outer loop
         vertex 8.986259e-02 1.983415e-01 0.000000e+00
         vertex 8.342012e-02 1.975223e-01 5.000000e-02
         vertex 8.342012e-02 1.975223e-01 0.000000e+00
      endloop
   endfacet
   facet normal 0.000000e+00 0.000000e+00 -1.000000e+00
      outer loop
         vertex 8.040480e-02 2.028101e-01 0.000000e+00
         vertex 8.986259e-02 1.983415e-01 0.000000e+00
         vertex 8.342012e-02 1.975223e-01 0.000000e+00
      endloop
   endfacet
   facet normal 0.000000e+00 0.000000e+00 -1.000000e+00
      outer loop
         vertex 7.453401e-02 2.033447e-01 0.000000e+00
         vertex 8.040480e-02 2.028101e-01 0.000000e+00
         vertex 8.342012e-02 1.975223e-01 0.000000e+00
      endloop
   endfacet
   facet normal 1.261416e-01 -9.920123e-01 0.000000e+00
      outer loop
         vertex 8.986259e-02 1.983415e-01 0.000000e+00
         vertex 8.986259e-02 1.983415e-01 5.000000e-02
         vertex 8.342012e-02 1.975223e-01 5.000000e-02
      endloop
   endfacet
   facet normal 0.000000e+00 0.000000e+00 1.000000e+00
      outer loop
         vertex 8.986259e-02 1.983415e-01 5.000000e-02
         vertex 8.682779e-02 2.020620e-01 5.000000e-02
         vertex 8.342012e-02 1.975223e-01 5.000000e-02
      endloop
   endfacet
   facet normal 0.000000e+00 0.000000e+00 1.000000e+00
      outer loop
         vertex 8.682779e-02 2.020620e-01 5.000000e-02
         vertex 8.040480e-02 2.028101e-01 5.000000e-02
         vertex 8.342012e-02 1.975223e-01 5.000000e-02
      endloop
   endfacet
   facet normal -3.668011e-01 -9.302994e-01 -0.000000e+00
      outer loop
         vertex 5.181662e-02 1.980681e-01 5.000000e-02
         vertex 5.181662e-02 1.980681e-01 0.000000e+00
         vertex 5.300853e-02 1.975982e-01 0.000000e+00
      endloop
   endfacet
   facet normal -3.668011e-01 -9.302994e-01 -0.000000e+00
      outer loop
         vertex 5.300853e-02 1.975982e-01 5.000000e-02
         vertex 5.181662e-02 1.980681e-01 5.000000e-02
         vertex 5.300853e-02 1.975982e-01 0.000000e+00
      endloop
   endfacet
   facet normal 0.000000e+00 0.000000e+00 -1.000000e+00
      outer loop
         vertex 5.193312e-02 2.019859e-01 0.000000e+00
         vertex 5.325432e-02 2.024804e-01 0.000000e+00
         vertex 5.300853e-02 1.975982e-01 0.000000e+00
      endloop
   endfacet
   facet normal 0.000000e+00 0.000000e+00 -1.000000e+00
      outer loop
         vertex 5.181662e-02 1.980681e-01 0.000000e+00
         vertex 5.193312e-02 2.019859e-01 0.000000e+00
         vertex 5.300853e-02 1.975982e-01 0.000000e+00
      endloop
   endfacet
   facet normal 0.000000e+00 0.000000e+00 1.000000e+00
      outer loop
         vertex 5.325432e-02 2.024804e-01 5.000000e-02
         vertex 5.193312e-02 2.019859e-01 5.000000e-02
         vertex 5.300853e-02 1.975982e-01 5.000000e-02
      endloop
   endfacet
   facet normal 0.000000e+00 0.000000e+00 1.000000e+00
      outer loop
         vertex 5.193312e-02 2.019859e-01 5.000000e-02
         vertex 5.181662e-02 1.980681e-01 5.000000e-02
         vertex 5.300853e-02 1.975982e-01 5.000000e-02
      endloop
   endfacet
   facet normal -4.845566e-01 -8.747599e-01 -0.000000e+00
      outer loop
         vertex 5.101355e-02 1.985130e-01 5.000000e-02
         vertex 5.101355e-02 1.985130e-01 0.000000e+00
         vertex 5.181662e-02 1.980681e-01 0.000000e+00
      endloop
   endfacet
   facet normal -4.845566e-01 -8.747599e-01 -0.000000e+00
      outer loop
         vertex 5.181662e-02 1.980681e-01 5.000000e-02
         vertex 5.101355e-02 1.985130e-01 5.000000e-02
         vertex 5.181662e-02 1.980681e-01 0.000000e+00
      endloop
   endfacet
   facet normal 0.000000e+00 0.000000e+00 -1.000000e+00
      outer loop
         vertex 5.116590e-02 2.015838e-01 0.000000e+00
         vertex 5.193312e-02 2.019859e-01 0.000000e+00
         vertex 5.181662e-02 1.980681e-01 0.000000e+00
      endloop
   endfacet
   facet normal 0.000000e+00 0.000000e+00 -1.000000e+00
      outer loop
         vertex 5.101355e-02 1.985130e-01 0.000000e+00
         vertex 5.116590e-02 2.015838e-01 0.000000e+00
         vertex 5.181662e-02 1.980681e-01 0.000000e+00
      endloop
   endfacet
   facet normal 0.000000e+00 0.000000e+00 1.000000e+00
      outer loop
         vertex 5.193312e-02 2.019859e-01 5.000000e-02
         vertex 5.116590e-02 2.015838e-01 5.000000e-02
         vertex 5.181662e-02 1.980681e-01 5.000000e-02
      endloop
   endfacet
   facet normal 0.000000e+00 0.000000e+00 1.000000e+00
      outer loop
         vertex 5.116590e-02 2.015838e-01 5.000000e-02
         vertex 5.101355e-02 1.985130e-01 5.000000e-02
         vertex 5.181662e-02 1.980681e-01 5.000000e-02
      endloop
   endfacet
   facet normal 1.485575e-01 -9.889038e-01 0.000000e+00
      outer loop
         vertex 9.700614e-02 1.994146e-01 0.000000e+00
         vertex 8.986259e-02 1.983415e-01 5.000000e-02
         vertex 8.986259e-02 1.983415e-01 0.000000e+00
      endloop
   endfacet
   facet normal 0.000000e+00 0.000000e+00 -1.000000e+00
      outer loop
         vertex 8.682779e-02 2.020620e-01 0.000000e+00
         vertex 9.700614e-02 1.994146e-01 0.000000e+00
         vertex 8.986259e-02 1.983415e-01 0.000000e+00
      endloop
   endfacet
   facet normal 0.000000e+00 0.000000e+00 -1.000000e+00
      outer loop
         vertex 8.040480e-02 2.028101e-01 0.000000e+00
         vertex 8.682779e-02 2.020620e-01 0.000000e+00
         vertex 8.986259e-02 1.983415e-01 0.000000e+00
      endloop
   endfacet
   facet normal 1.485575e-01 -9.889038e-01 0.000000e+00
      outer loop
         vertex 9.700614e-02 1.994146e-01 0.000000e+00
         vertex 9.700614e-02 1.994146e-01 5.000000e-02
         vertex 8.986259e-02 1.983415e-01 5.000000e-02
      endloop
   endfacet
   facet normal 0.000000e+00 0.000000e+00 1.000000e+00
      outer loop
         vertex 9.700614e-02 1.994146e-01 5.000000e-02
         vertex 9.377182e-02 2.010933e-01 5.000000e-02
         vertex 8.986259e-02 1.983415e-01 5.000000e-02
      endloop
   endfacet
   facet normal 0.000000e+00 0.000000e+00 1.000000e+00
      outer loop
         vertex 9.377182e-02 2.010933e-01 5.000000e-02
         vertex 8.682779e-02 2.020620e-01 5.000000e-02
         vertex 8.986259e-02 1.983415e-01 5.000000e-02
      endloop
   endfacet
   facet normal -6.094053e-01 -7.928589e-01 -0.000000e+00
      outer loop
         vertex 5.065838e-02 1.987860e-01 5.000000e-02
         vertex 5.065838e-02 1.987860e-01 0.000000e+00
         vertex 5.101355e-02 1.985130e-01 0.000000e+00
      endloop
   endfacet
   facet normal -6.094053e-01 -7.928589e-01 -0.000000e+00
      outer loop
         vertex 5.101355e-02 1.985130e-01 5.000000e-02
         vertex 5.065838e-02 1.987860e-01 5.000000e-02
         vertex 5.101355e-02 1.985130e-01 0.000000e+00
      endloop
   endfacet
   facet normal 0.000000e+00 0.000000e+00 -1.000000e+00
      outer loop
         vertex 5.065838e-02 1.987860e-01 0.000000e+00
         vertex 5.116590e-02 2.015838e-01 0.000000e+00
         vertex 5.101355e-02 1.985130e-01 0.000000e+00
      endloop
   endfacet
   facet normal 0.000000e+00 0.000000e+00 1.000000e+00
      outer loop
         vertex 5.116590e-02 2.015838e-01 5.000000e-02
         vertex 5.065838e-02 1.987860e-01 5.000000e-02
         vertex 5.101355e-02 1.985130e-01 5.000000e-02
      endloop
   endfacet
   facet normal -7.261581e-01 -6.875277e-01 -0.000000e+00
      outer loop
         vertex 5.037474e-02 1.990855e-01 5.000000e-02
         vertex 5.037474e-02 1.990855e-01 0.000000e+00
         vertex 5.065838e-02 1.987860e-01 0.000000e+00
      endloop
   endfacet
   facet normal -7.261581e-01 -6.875277e-01 -0.000000e+00
      outer loop
         vertex 5.065838e-02 1.987860e-01 5.000000e-02
         vertex 5.037474e-02 1.990855e-01 5.000000e-02
         vertex 5.065838e-02 1.987860e-01 0.000000e+00
      endloop
   endfacet
   facet normal 0.000000e+00 0.000000e+00 -1.000000e+00
      outer loop
         vertex 5.037474e-02 1.990855e-01 0.000000e+00
         vertex 5.116590e-02 2.015838e-01 0.000000e+00
         vertex 5.065838e-02 1.987860e-01 0.000000e+00
      endloop
   endfacet
   facet normal 0.000000e+00 0.000000e+00 1.000000e+00
      outer loop
         vertex 5.116590e-02 2.015838e-01 5.000000e-02
         vertex 5.037474e-02 1.990855e-01 5.000000e-02
         vertex 5.065838e-02 1.987860e-01 5.000000e-02
      endloop
   endfacet
   facet normal -8.270696e-01 -5.620995e-01 -0.000000e+00
      outer loop
         vertex 5.018507e-02 1.993646e-01 5.000000e-02
         vertex 5.018507e-02 1.993646e-01 0.000000e+00
         vertex 5.037474e-02 1.990855e-01 0.000000e+00
      endloop
   endfacet
   facet normal -8.270696e-01 -5.620995e-01 -0.000000e+00
      outer loop
         vertex 5.037474e-02 1.990855e-01 5.000000e-02
         vertex 5.018507e-02 1.993646e-01 5.000000e-02
         vertex 5.037474e-02 1.990855e-01 0.000000e+00
      endloop
   endfacet
   facet normal 0.000000e+00 0.000000e+00 -1.000000e+00
      outer loop
         vertex 5.018507e-02 1.993646e-01 0.000000e+00
         vertex 5.116590e-02 2.015838e-01 0.000000e+00
         vertex 5.037474e-02 1.990855e-01 0.000000e+00
      endloop
   endfacet
   facet normal 0.000000e+00 0.000000e+00 1.000000e+00
      outer loop
         vertex 5.116590e-02 2.015838e-01 5.000000e-02
         vertex 5.018507e-02 1.993646e-01 5.000000e-02
         vertex 5.037474e-02 1.990855e-01 5.000000e-02
      endloop
   endfacet
   facet normal -9.070400e-01 -4.210445e-01 -0.000000e+00
      outer loop
         vertex 5.007471e-02 1.996024e-01 5.000000e-02
         vertex 5.007471e-02 1.996024e-01 0.000000e+00
         vertex 5.018507e-02 1.993646e-01 0.000000e+00
      endloop
   endfacet
   facet normal -9.070400e-01 -4.210445e-01 -0.000000e+00
      outer loop
         vertex 5.018507e-02 1.993646e-01 5.000000e-02
         vertex 5.007471e-02 1.996024e-01 5.000000e-02
         vertex 5.018507e-02 1.993646e-01 0.000000e+00
      endloop
   endfacet
   facet normal 0.000000e+00 0.000000e+00 -1.000000e+00
      outer loop
         vertex 5.007471e-02 1.996024e-01 0.000000e+00
         vertex 5.116590e-02 2.015838e-01 0.000000e+00
         vertex 5.018507e-02 1.993646e-01 0.000000e+00
      endloop
   endfacet
   facet normal 0.000000e+00 0.000000e+00 1.000000e+00
      outer loop
         vertex 5.116590e-02 2.015838e-01 5.000000e-02
         vertex 5.007471e-02 1.996024e-01 5.000000e-02
         vertex 5.018507e-02 1.993646e-01 5.000000e-02
      endloop
   endfacet
   facet normal 1.667633e-01 -9.859970e-01 0.000000e+00
      outer loop
         vertex 1.000000e-01 1.999210e-01 0.000000e+00
         vertex 9.700614e-02 1.994146e-01 5.000000e-02
         vertex 9.700614e-02 1.994146e-01 0.000000e+00
      endloop
   endfacet
   facet normal 0.000000e+00 0.000000e+00 -1.000000e+00
      outer loop
         vertex 9.377182e-02 2.010933e-01 0.000000e+00
         vertex 1.000000e-01 1.999210e-01 0.000000e+00
         vertex 9.700614e-02 1.994146e-01 0.000000e+00
      endloop
   endfacet
   facet normal 0.000000e+00 0.000000e+00 -1.000000e+00
      outer loop
         vertex 8.682779e-02 2.020620e-01 0.000000e+00
         vertex 9.377182e-02 2.010933e-01 0.000000e+00
         vertex 9.700614e-02 1.994146e-01 0.000000e+00
      endloop
   endfacet
   facet normal 1.667633e-01 -9.859970e-01 0.000000e+00
      outer loop
         vertex 1.000000e-01 1.999210e-01 0.000000e+00
         vertex 1.000000e-01 1.999210e-01 5.000000e-02
         vertex 9.700614e-02 1.994146e-01 5.000000e-02
      endloop
   endfacet
   facet normal 0.000000e+00 -0.000000e+00 1.000000e+00
      outer loop
         vertex 1.000000e-01 1.999210e-01 5.000000e-02
         vertex 1.000000e-01 2.000790e-01 5.000000e-02
         vertex 9.700614e-02 1.994146e-01 5.000000e-02
      endloop
   endfacet
   facet normal 0.000000e+00 0.000000e+00 1.000000e+00
      outer loop
         vertex 1.000000e-01 2.000790e-01 5.000000e-02
         vertex 9.377182e-02 2.010933e-01 5.000000e-02
         vertex 9.700614e-02 1.994146e-01 5.000000e-02
      endloop
   endfacet
   facet normal -9.608806e-01 -2.769628e-01 -0.000000e+00
      outer loop
         vertex 5.002360e-02 1.997797e-01 5.000000e-02
         vertex 5.002360e-02 1.997797e-01 0.000000e+00
         vertex 5.007471e-02 1.996024e-01 0.000000e+00
      endloop
   endfacet
   facet normal -9.608806e-01 -2.769628e-01 -0.000000e+00
      outer loop
         vertex 5.007471e-02 1.996024e-01 5.000000e-02
         vertex 5.002360e-02 1.997797e-01 5.000000e-02
         vertex 5.007471e-02 1.996024e-01 0.000000e+00
      endloop
   endfacet
   facet normal 0.000000e+00 0.000000e+00 -1.000000e+00
      outer loop
         vertex 5.002360e-02 1.997797e-01 0.000000e+00
         vertex 5.116590e-02 2.015838e-01 0.000000e+00
         vertex 5.007471e-02 1.996024e-01 0.000000e+00
      endloop
   endfacet
   facet normal 0.000000e+00 0.000000e+00 1.000000e+00
      outer loop
         vertex 5.116590e-02 2.015838e-01 5.000000e-02
         vertex 5.002360e-02 1.997797e-01 5.000000e-02
         vertex 5.007471e-02 1.996024e-01 5.000000e-02
      endloop
   endfacet
   facet normal -9.913779e-01 -1.310336e-01 -0.000000e+00
      outer loop
         vertex 5.000136e-02 1.999479e-01 5.000000e-02
         vertex 5.000136e-02 1.999479e-01 0.000000e+00
         vertex 5.002360e-02 1.997797e-01 0.000000e+00
      endloop
   endfacet
   facet normal -9.913779e-01 -1.310336e-01 -0.000000e+00
      outer loop
         vertex 5.002360e-02 1.997797e-01 5.000000e-02
         vertex 5.000136e-02 1.999479e-01 5.000000e-02
         vertex 5.002360e-02 1.997797e-01 0.000000e+00
      endloop
   endfacet
   facet normal 0.000000e+00 -0.000000e+00 -1.000000e+00
      outer loop
         vertex 5.011497e-02 2.004967e-01 0.000000e+00
         vertex 5.024427e-02 2.007335e-01 0.000000e+00
         vertex 5.002360e-02 1.997797e-01 0.000000e+00
      endloop
   endfacet
   facet normal 0.000000e+00 -0.000000e+00 -1.000000e+00
      outer loop
         vertex 5.024427e-02 2.007335e-01 0.000000e+00
         vertex 5.045198e-02 2.010062e-01 0.000000e+00
         vertex 5.002360e-02 1.997797e-01 0.000000e+00
      endloop
   endfacet
   facet normal 0.000000e+00 -0.000000e+00 -1.000000e+00
      outer loop
         vertex 5.045198e-02 2.010062e-01 0.000000e+00
         vertex 5.073376e-02 2.012793e-01 0.000000e+00
         vertex 5.002360e-02 1.997797e-01 0.000000e+00
      endloop
   endfacet
   facet normal 0.000000e+00 -0.000000e+00 -1.000000e+00
      outer loop
         vertex 5.073376e-02 2.012793e-01 0.000000e+00
         vertex 5.116590e-02 2.015838e-01 0.000000e+00
         vertex 5.002360e-02 1.997797e-01 0.000000e+00
      endloop
   endfacet
   facet normal 0.000000e+00 0.000000e+00 -1.000000e+00
      outer loop
         vertex 5.000136e-02 1.999479e-01 0.000000e+00
         vertex 5.000684e-02 2.001175e-01 0.000000e+00
         vertex 5.002360e-02 1.997797e-01 0.000000e+00
      endloop
   endfacet
   facet normal 0.000000e+00 0.000000e+00 -1.000000e+00
      outer loop
         vertex 5.000684e-02 2.001175e-01 0.000000e+00
         vertex 5.004145e-02 2.002938e-01 0.000000e+00
         vertex 5.002360e-02 1.997797e-01 0.000000e+00
      endloop
   endfacet
   facet normal 0.000000e+00 -0.000000e+00 -1.000000e+00
      outer loop
         vertex 5.004145e-02 2.002938e-01 0.000000e+00
         vertex 5.011497e-02 2.004967e-01 0.000000e+00
         vertex 5.002360e-02 1.997797e-01 0.000000e+00
      endloop
   endfacet
   facet normal 0.000000e+00 0.000000e+00 1.000000e+00
      outer loop
         vertex 5.073376e-02 2.012793e-01 5.000000e-02
         vertex 5.045198e-02 2.010062e-01 5.000000e-02
         vertex 5.002360e-02 1.997797e-01 5.000000e-02
      endloop
   endfacet
   facet normal 0.000000e+00 0.000000e+00 1.000000e+00
      outer loop
         vertex 5.045198e-02 2.010062e-01 5.000000e-02
         vertex 5.024427e-02 2.007335e-01 5.000000e-02
         vertex 5.002360e-02 1.997797e-01 5.000000e-02
      endloop
   endfacet
   facet normal 0.000000e+00 0.000000e+00 1.000000e+00
      outer loop
         vertex 5.024427e-02 2.007335e-01 5.000000e-02
         vertex 5.011497e-02 2.004967e-01 5.000000e-02
         vertex 5.002360e-02 1.997797e-01 5.000000e-02
      endloop
   endfacet
   facet normal 0.000000e+00 0.000000e+00 1.000000e+00
      outer loop
         vertex 5.011497e-02 2.004967e-01 5.000000e-02
         vertex 5.004145e-02 2.002938e-01 5.000000e-02
         vertex 5.002360e-02 1.997797e-01 5.000000e-02
      endloop
   endfacet
   facet normal 0.000000e+00 0.000000e+00 1.000000e+00
      outer loop
         vertex 5.004145e-02 2.002938e-01 5.000000e-02
         vertex 5.000684e-02 2.001175e-01 5.000000e-02
         vertex 5.002360e-02 1.997797e-01 5.000000e-02
      endloop
   endfacet
   facet normal 0.000000e+00 0.000000e+00 1.000000e+00
      outer loop
         vertex 5.000684e-02 2.001175e-01 5.000000e-02
         vertex 5.000136e-02 1.999479e-01 5.000000e-02
         vertex 5.002360e-02 1.997797e-01 5.000000e-02
      endloop
   endfacet
   facet normal 0.000000e+00 0.000000e+00 1.000000e+00
      outer loop
         vertex 5.116590e-02 2.015838e-01 5.000000e-02
         vertex 5.073376e-02 2.012793e-01 5.000000e-02
         vertex 5.002360e-02 1.997797e-01 5.000000e-02
      endloop
   endfacet
   facet normal 1.000000e+00 0.000000e+00 0.000000e+00
      outer loop
         vertex 1.000000e-01 2.000790e-01 0.000000e+00
         vertex 1.000000e-01 1.999210e-01 5.000000e-02
         vertex 1.000000e-01 1.999210e-01 0.000000e+00
      endloop
   endfacet
   facet normal 0.000000e+00 0.000000e+00 -1.000000e+00
      outer loop
         vertex 9.377182e-02 2.010933e-01 0.000000e+00
         vertex 1.000000e-01 2.000790e-01 0.000000e+00
         vertex 1.000000e-01 1.999210e-01 0.000000e+00
      endloop
   endfacet
   facet normal 1.000000e+00 0.000000e+00 -0.000000e+00
      outer loop
         vertex 1.000000e-01 2.000790e-01 0.000000e+00
         vertex 1.000000e-01 2.000790e-01 5.000000e-02
         vertex 1.000000e-01 1.999210e-01 5.000000e-02
      endloop
   endfacet
   facet normal -9.994786e-01 3.228801e-02 0.000000e+00
      outer loop
         vertex 5.000684e-02 2.001175e-01 5.000000e-02
         vertex 5.000684e-02 2.001175e-01 0.000000e+00
         vertex 5.000136e-02 1.999479e-01 0.000000e+00
      endloop
   endfacet
   facet normal -9.994786e-01 3.228801e-02 0.000000e+00
      outer loop
         vertex 5.000136e-02 1.999479e-01 5.000000e-02
         vertex 5.000684e-02 2.001175e-01 5.000000e-02
         vertex 5.000136e-02 1.999479e-01 0.000000e+00
      endloop
   endfacet
   facet normal 1.607424e-01 9.869964e-01 0.000000e+00
      outer loop
         vertex 9.377182e-02 2.010933e-01 0.000000e+00
         vertex 1.000000e-01 2.000790e-01 5.000000e-02
         vertex 1.000000e-01 2.000790e-01 0.000000e+00
      endloop
   endfacet
   facet normal 1.607424e-01 9.869964e-01 -0.000000e+00
      outer loop
         vertex 9.377182e-02 2.010933e-01 0.000000e+00
         vertex 9.377182e-02 2.010933e-01 5.000000e-02
         vertex 1.000000e-01 2.000790e-01 5.000000e-02
      endloop
   endfacet
   facet normal -9.812768e-01 1.926027e-01 0.000000e+00
      outer loop
         vertex 5.004145e-02 2.002938e-01 5.000000e-02
         vertex 5.004145e-02 2.002938e-01 0.000000e+00
         vertex 5.000684e-02 2.001175e-01 0.000000e+00
      endloop
   endfacet
   facet normal -9.812768e-01 1.926027e-01 0.000000e+00
      outer loop
         vertex 5.000684e-02 2.001175e-01 5.000000e-02
         vertex 5.004145e-02 2.002938e-01 5.000000e-02
         vertex 5.000684e-02 2.001175e-01 0.000000e+00
      endloop
   endfacet
   facet normal -9.401654e-01 3.407184e-01 0.000000e+00
      outer loop
         vertex 5.011497e-02 2.004967e-01 5.000000e-02
         vertex 5.011497e-02 2.004967e-01 0.000000e+00
         vertex 5.004145e-02 2.002938e-01 0.000000e+00
      endloop
   endfacet
   facet normal -9.401654e-01 3.407184e-01 0.000000e+00
      outer loop
         vertex 5.004145e-02 2.002938e-01 5.000000e-02
         vertex 5.011497e-02 2.004967e-01 5.000000e-02
         vertex 5.004145e-02 2.002938e-01 0.000000e+00
      endloop
   endfacet
   facet normal -8.777272e-01 4.791606e-01 0.000000e+00
      outer loop
         vertex 5.024427e-02 2.007335e-01 5.000000e-02
         vertex 5.024427e-02 2.007335e-01 0.000000e+00
         vertex 5.011497e-02 2.004967e-01 0.000000e+00
      endloop
   endfacet
   facet normal -8.777272e-01 4.791606e-01 0.000000e+00
      outer loop
         vertex 5.011497e-02 2.004967e-01 5.000000e-02
         vertex 5.024427e-02 2.007335e-01 5.000000e-02
         vertex 5.011497e-02 2.004967e-01 0.000000e+00
      endloop
   endfacet
   facet normal -7.955125e-01 6.059371e-01 0.000000e+00
      outer loop
         vertex 5.045198e-02 2.010062e-01 5.000000e-02
         vertex 5.045198e-02 2.010062e-01 0.000000e+00
         vertex 5.024427e-02 2.007335e-01 0.000000e+00
      endloop
   endfacet
   facet normal -7.955125e-01 6.059371e-01 0.000000e+00
      outer loop
         vertex 5.024427e-02 2.007335e-01 5.000000e-02
         vertex 5.045198e-02 2.010062e-01 5.000000e-02
         vertex 5.024427e-02 2.007335e-01 0.000000e+00
      endloop
   endfacet
   facet normal -6.960094e-01 7.180326e-01 0.000000e+00
      outer loop
         vertex 5.073376e-02 2.012793e-01 5.000000e-02
         vertex 5.073376e-02 2.012793e-01 0.000000e+00
         vertex 5.045198e-02 2.010062e-01 0.000000e+00
      endloop
   endfacet
   facet normal -6.960094e-01 7.180326e-01 0.000000e+00
      outer loop
         vertex 5.045198e-02 2.010062e-01 5.000000e-02
         vertex 5.073376e-02 2.012793e-01 5.000000e-02
         vertex 5.045198e-02 2.010062e-01 0.000000e+00
      endloop
   endfacet
   facet normal 1.381625e-01 9.904096e-01 0.000000e+00
      outer loop
         vertex 8.682779e-02 2.020620e-01 0.000000e+00
         vertex 9.377182e-02 2.010933e-01 5.000000e-02
         vertex 9.377182e-02 2.010933e-01 0.000000e+00
      endloop
   endfacet
   facet normal 1.381625e-01 9.904096e-01 -0.000000e+00
      outer loop
         vertex 8.682779e-02 2.020620e-01 0.000000e+00
         vertex 8.682779e-02 2.020620e-01 5.000000e-02
         vertex 9.377182e-02 2.010933e-01 5.000000e-02
      endloop
   endfacet
   facet normal -5.759814e-01 8.174628e-01 0.000000e+00
      outer loop
         vertex 5.116590e-02 2.015838e-01 5.000000e-02
         vertex 5.116590e-02 2.015838e-01 0.000000e+00
         vertex 5.073376e-02 2.012793e-01 0.000000e+00
      endloop
   endfacet
   facet normal -5.759814e-01 8.174628e-01 0.000000e+00
      outer loop
         vertex 5.073376e-02 2.012793e-01 5.000000e-02
         vertex 5.116590e-02 2.015838e-01 5.000000e-02
         vertex 5.073376e-02 2.012793e-01 0.000000e+00
      endloop
   endfacet
   facet normal -4.641773e-01 8.857423e-01 0.000000e+00
      outer loop
         vertex 5.193312e-02 2.019859e-01 5.000000e-02
         vertex 5.193312e-02 2.019859e-01 0.000000e+00
         vertex 5.116590e-02 2.015838e-01 0.000000e+00
      endloop
   endfacet
   facet normal -4.641773e-01 8.857423e-01 0.000000e+00
      outer loop
         vertex 5.116590e-02 2.015838e-01 5.000000e-02
         vertex 5.193312e-02 2.019859e-01 5.000000e-02
         vertex 5.116590e-02 2.015838e-01 0.000000e+00
      endloop
   endfacet
   facet normal -3.505576e-01 9.365412e-01 0.000000e+00
      outer loop
         vertex 5.325432e-02 2.024804e-01 5.000000e-02
         vertex 5.325432e-02 2.024804e-01 0.000000e+00
         vertex 5.193312e-02 2.019859e-01 0.000000e+00
      endloop
   endfacet
   facet normal -3.505576e-01 9.365412e-01 0.000000e+00
      outer loop
         vertex 5.193312e-02 2.019859e-01 5.000000e-02
         vertex 5.325432e-02 2.024804e-01 5.000000e-02
         vertex 5.193312e-02 2.019859e-01 0.000000e+00
      endloop
   endfacet
   facet normal 1.156897e-01 9.932854e-01 0.000000e+00
      outer loop
         vertex 8.040480e-02 2.028101e-01 0.000000e+00
         vertex 8.682779e-02 2.020620e-01 5.000000e-02
         vertex 8.682779e-02 2.020620e-01 0.000000e+00
      endloop
   endfacet
   facet normal 1.156897e-01 9.932854e-01 -0.000000e+00
      outer loop
         vertex 8.040480e-02 2.028101e-01 0.000000e+00
         vertex 8.040480e-02 2.028101e-01 5.000000e-02
         vertex 8.682779e-02 2.020620e-01 5.000000e-02
      endloop
   endfacet
   facet normal -2.539249e-01 9.672239e-01 0.000000e+00
      outer loop
         vertex 5.473110e-02 2.028681e-01 5.000000e-02
         vertex 5.473110e-02 2.028681e-01 0.000000e+00
         vertex 5.325432e-02 2.024804e-01 0.000000e+00
      endloop
   endfacet
   facet normal -2.539249e-01 9.672239e-01 0.000000e+00
      outer loop
         vertex 5.325432e-02 2.024804e-01 5.000000e-02
         vertex 5.473110e-02 2.028681e-01 5.000000e-02
         vertex 5.325432e-02 2.024804e-01 0.000000e+00
      endloop
   endfacet
   facet normal 9.068480e-02 9.958796e-01 0.000000e+00
      outer loop
         vertex 7.453401e-02 2.033447e-01 0.000000e+00
         vertex 8.040480e-02 2.028101e-01 5.000000e-02
         vertex 8.040480e-02 2.028101e-01 0.000000e+00
      endloop
   endfacet
   facet normal 9.068480e-02 9.958796e-01 -0.000000e+00
      outer loop
         vertex 7.453401e-02 2.033447e-01 0.000000e+00
         vertex 7.453401e-02 2.033447e-01 5.000000e-02
         vertex 8.040480e-02 2.028101e-01 5.000000e-02
      endloop
   endfacet
   facet normal -1.766949e-01 9.842657e-01 0.000000e+00
      outer loop
         vertex 5.696495e-02 2.032692e-01 5.000000e-02
         vertex 5.696495e-02 2.032692e-01 0.000000e+00
         vertex 5.473110e-02 2.028681e-01 0.000000e+00
      endloop
   endfacet
   facet normal -1.766949e-01 9.842657e-01 0.000000e+00
      outer loop
         vertex 5.473110e-02 2.028681e-01 5.000000e-02
         vertex 5.696495e-02 2.032692e-01 5.000000e-02
         vertex 5.473110e-02 2.028681e-01 0.000000e+00
      endloop
   endfacet
   facet normal -1.106017e-01 9.938648e-01 0.000000e+00
      outer loop
         vertex 5.937130e-02 2.035369e-01 5.000000e-02
         vertex 5.937130e-02 2.035369e-01 0.000000e+00
         vertex 5.696495e-02 2.032692e-01 0.000000e+00
      endloop
   endfacet
   facet normal -1.106017e-01 9.938648e-01 0.000000e+00
      outer loop
         vertex 5.696495e-02 2.032692e-01 5.000000e-02
         vertex 5.937130e-02 2.035369e-01 5.000000e-02
         vertex 5.696495e-02 2.032692e-01 0.000000e+00
      endloop
   endfacet
   facet normal 6.180753e-02 9.980881e-01 0.000000e+00
      outer loop
         vertex 6.990311e-02 2.036315e-01 0.000000e+00
         vertex 7.453401e-02 2.033447e-01 5.000000e-02
         vertex 7.453401e-02 2.033447e-01 0.000000e+00
      endloop
   endfacet
   facet normal 6.180753e-02 9.980881e-01 -0.000000e+00
      outer loop
         vertex 6.990311e-02 2.036315e-01 0.000000e+00
         vertex 6.990311e-02 2.036315e-01 5.000000e-02
         vertex 7.453401e-02 2.033447e-01 5.000000e-02
      endloop
   endfacet
   facet normal -5.648588e-02 9.984034e-01 0.000000e+00
      outer loop
         vertex 6.248184e-02 2.037129e-01 5.000000e-02
         vertex 6.248184e-02 2.037129e-01 0.000000e+00
         vertex 5.937130e-02 2.035369e-01 0.000000e+00
      endloop
   endfacet
   facet normal -5.648588e-02 9.984034e-01 0.000000e+00
      outer loop
         vertex 5.937130e-02 2.035369e-01 5.000000e-02
         vertex 6.248184e-02 2.037129e-01 5.000000e-02
         vertex 5.937130e-02 2.035369e-01 0.000000e+00
      endloop
   endfacet
   facet normal 2.876542e-02 9.995862e-01 0.000000e+00
      outer loop
         vertex 6.590924e-02 2.037464e-01 0.000000e+00
         vertex 6.990311e-02 2.036315e-01 5.000000e-02
         vertex 6.990311e-02 2.036315e-01 0.000000e+00
      endloop
   endfacet
   facet normal 2.876542e-02 9.995862e-01 -0.000000e+00
      outer loop
         vertex 6.590924e-02 2.037464e-01 0.000000e+00
         vertex 6.590924e-02 2.037464e-01 5.000000e-02
         vertex 6.990311e-02 2.036315e-01 5.000000e-02
      endloop
   endfacet
   facet normal -9.768706e-03 9.999523e-01 0.000000e+00
      outer loop
         vertex 6.590924e-02 2.037464e-01 5.000000e-02
         vertex 6.590924e-02 2.037464e-01 0.000000e+00
         vertex 6.248184e-02 2.037129e-01 0.000000e+00
      endloop
   endfacet
   facet normal -9.768706e-03 9.999523e-01 0.000000e+00
      outer loop
         vertex 6.248184e-02 2.037129e-01 5.000000e-02
         vertex 6.590924e-02 2.037464e-01 5.000000e-02
         vertex 6.248184e-02 2.037129e-01 0.000000e+00
      endloop
   endfacet
endsolid